<svg width="33" height="33" viewBox="0 0 33 33" fill="none" xmlns="http://www.w3.org/2000/svg">
<path fill-rule="evenodd" clip-rule="evenodd" d="M17.1549 17.743H20.2314L13.794 25.2017L15.7054 19.8809H13.1118L15.1957 14.7186H18.6028L17.1549 17.743ZM5.71045 12.4305H27.6328V27.2316H5.71045V12.4305ZM7.39111 5.81846C7.39111 5.41582 8.43454 5.21374 9.47796 5.21374C10.5206 5.21374 11.5641 5.41582 11.5641 5.81846V7.76812H7.39111V5.81846ZM28.6029 29.2227C29.1396 29.2227 29.5747 28.7764 29.5747 28.2275V12.4305H30.6719V7.76803H27.8939V5.81837C27.8939 4.85005 27.3707 3.22266 23.8657 3.22266C20.3615 3.22266 19.8376 4.85005 19.8376 5.81837V7.76803H13.5054V5.81837C13.5054 4.85005 12.9822 3.22266 9.47801 3.22266C5.97381 3.22266 5.44911 4.85005 5.44911 5.81837V7.76803H2.67188V12.4305H3.76829V28.2275C3.76829 28.7764 4.20417 29.2227 4.73931 29.2227H28.6029Z" fill="black"/>
</svg>
