<svg width="33" height="33" viewBox="0 0 33 33" fill="none" xmlns="http://www.w3.org/2000/svg">
<path fill-rule="evenodd" clip-rule="evenodd" d="M18.3446 24.1945C14.8272 24.1945 11.9661 21.2955 11.9661 17.7305C11.9661 17.4342 11.9929 17.1454 12.032 16.8598C12.4424 13.7883 14.9827 11.401 18.0938 11.2788C18.1777 11.2747 18.2599 11.2656 18.3446 11.2656H18.3462C20.0471 11.2656 21.6479 11.9382 22.8545 13.1603C24.0604 14.3833 24.7239 16.0057 24.7239 17.7305C24.7239 19.4568 24.0612 21.0801 22.8561 22.3014C21.6511 23.5227 20.0496 24.1945 18.3446 24.1945ZM4.51034 20.1028C4.51034 20.1028 4.0723 16.3488 5.88881 12.4702C7.82826 8.32676 12.2454 4.04053 19.3893 4.04053C19.3925 4.04053 19.3917 6.54014 19.3917 7.23911C19.3917 7.88939 19.1246 8.48108 18.6874 8.91103C18.5734 8.90607 18.4611 8.89452 18.3454 8.89452C13.5375 8.89452 9.62767 12.8581 9.62767 17.7302C9.62767 18.0851 9.65372 18.4325 9.69444 18.7766C9.31745 19.5631 8.56756 20.1028 7.67112 20.1028H4.51034ZM21.1871 2.22266H19.4651H19.4634H19.3893C12.6973 2.22266 7.04425 5.76206 4.2686 11.6905C2.25342 15.9932 2.70938 20.1433 2.73055 20.3166L2.91782 21.9217H4.51042H6.74787C7.36912 23.6786 8.35594 25.263 9.63426 26.5586C11.866 28.8206 14.9478 30.2227 18.3455 30.2227C21.6382 30.2227 24.7338 28.9229 27.0617 26.5636C29.3903 24.2034 30.6719 21.0667 30.6719 17.7303C30.6711 11.8349 26.6155 6.8918 21.1855 5.58629L21.1871 2.22266ZM22.4361 17.9836C22.3702 18.0504 22.2814 18.0876 22.1878 18.0876C22.0934 18.0876 22.0054 18.0504 21.9378 17.9836C21.8011 17.8441 21.8011 17.618 21.9378 17.4777C22.0754 17.3399 22.2994 17.3399 22.4361 17.4777C22.5045 17.5487 22.5396 17.6387 22.5396 17.7303C22.5396 17.8219 22.5045 17.9135 22.4361 17.9836ZM21.0625 20.8399C20.9689 20.8399 20.8785 20.8036 20.8134 20.7368C20.7474 20.6691 20.71 20.5791 20.71 20.4842C20.71 20.2862 20.8688 20.1269 21.0625 20.1269C21.2571 20.1269 21.4151 20.2862 21.4151 20.4834C21.4151 20.5824 21.3752 20.6716 21.3117 20.7368C21.2474 20.8011 21.1594 20.8399 21.0625 20.8399ZM21.3109 14.7266C21.3753 14.7901 21.4152 14.8801 21.4135 14.9783C21.4135 15.0732 21.3777 15.1631 21.3118 15.2308C21.245 15.2985 21.1562 15.3348 21.0626 15.3348C20.8688 15.3348 20.7101 15.1747 20.7101 14.9783C20.7101 14.7819 20.8688 14.6218 21.0626 14.6218C21.1595 14.6218 21.2474 14.6614 21.3109 14.7266ZM18.3463 19.9973C17.1128 19.9973 16.1097 18.9798 16.1097 17.7304C16.1097 16.481 17.1128 15.4644 18.3455 15.4644C18.9619 15.4635 19.5229 15.7177 19.9267 16.1287C20.3314 16.5388 20.5822 17.1057 20.5822 17.7304C20.5822 18.3353 20.3509 18.9047 19.9284 19.3339C19.505 19.7622 18.944 19.9973 18.3463 19.9973ZM18.3464 21.9811C18.2561 21.9811 18.1657 21.9464 18.0973 21.8763C18.0305 21.8086 17.9939 21.7195 17.9939 21.6238C17.9939 21.5281 18.0305 21.4389 18.0973 21.3713C18.2341 21.2318 18.4588 21.2326 18.5956 21.3713C18.7332 21.5107 18.7332 21.7377 18.5956 21.8763C18.5272 21.9464 18.436 21.9811 18.3464 21.9811ZM15.381 20.7368C15.3175 20.6716 15.2776 20.5824 15.2776 20.4842C15.2776 20.3885 15.3142 20.2986 15.381 20.2317C15.4477 20.1632 15.5365 20.1269 15.6301 20.1269C15.8247 20.1269 15.9827 20.2878 15.9827 20.4842C15.9827 20.6798 15.8247 20.8399 15.6301 20.8399C15.534 20.8399 15.4453 20.8011 15.381 20.7368ZM15.6301 14.6218C15.7246 14.6218 15.8117 14.6589 15.8785 14.7266C15.9452 14.7934 15.9827 14.8826 15.9827 14.9783C15.9827 15.1747 15.8247 15.3348 15.6301 15.3348C15.4355 15.3348 15.2776 15.1747 15.2776 14.9783C15.2776 14.8801 15.3175 14.7901 15.381 14.7266C15.4453 14.6614 15.5332 14.6218 15.6301 14.6218ZM14.2557 17.9837C14.1865 17.9135 14.1523 17.8219 14.1523 17.7303C14.1523 17.6404 14.1865 17.5488 14.2557 17.4778C14.3225 17.411 14.4104 17.3738 14.5057 17.3738C14.5993 17.3738 14.6881 17.411 14.7532 17.4778C14.8916 17.6181 14.8916 17.8442 14.754 17.9837C14.6172 18.1223 14.3933 18.1223 14.2557 17.9837ZM18.3463 13.4812C18.4358 13.4812 18.5262 13.5167 18.5954 13.586C18.6614 13.6537 18.6988 13.742 18.6988 13.8377C18.6988 13.9334 18.6614 14.0234 18.5954 14.0902C18.457 14.2305 18.2339 14.2297 18.0971 14.0902C17.9595 13.9516 17.9595 13.7246 18.0963 13.586C18.1655 13.5167 18.2559 13.4812 18.3463 13.4812ZM12.8634 17.7303C12.8634 20.7928 15.3215 23.2858 18.3446 23.2858C19.8102 23.2858 21.1862 22.7073 22.2219 21.6584C23.2576 20.6087 23.8275 19.2133 23.8275 17.7303C23.8275 16.1979 23.2128 14.8082 22.2203 13.8031C21.2269 12.7979 19.8574 12.1741 18.3463 12.1741C15.3223 12.1741 12.8634 14.6663 12.8634 17.7303Z" fill="black"/>
</svg>
