<svg width="33" height="33" viewBox="0 0 33 33" fill="none" xmlns="http://www.w3.org/2000/svg">
<path fill-rule="evenodd" clip-rule="evenodd" d="M12.4526 19.8227C12.6578 19.3587 12.6603 18.8707 12.6603 18.4763C12.6603 18.4714 12.6594 18.468 12.6594 18.4631H21.3411C21.3411 18.8732 21.346 19.3612 21.5496 19.8227H12.4526ZM22.2627 18.4472C22.2627 17.385 22.5591 16.5249 25.6652 16.5249C27.1462 16.5249 27.0396 17.385 27.0396 18.4472C27.0396 18.9833 26.9443 19.468 26.7155 19.8176C26.4908 20.1582 26.1391 20.3703 25.6229 20.3703C24.8429 20.3703 24.2518 20.323 23.7901 20.2394C23.2674 20.1449 22.9189 20.0032 22.6934 19.8226C22.2627 19.4771 22.2627 18.9965 22.2627 18.4629V18.4472ZM8.33594 16.5249C11.4437 16.5249 11.7376 17.385 11.7376 18.4472C11.7376 19.3702 11.758 20.1416 9.53524 20.3272C9.20142 20.3545 8.82038 20.3703 8.37828 20.3703C7.86126 20.3703 7.51035 20.1582 7.28645 19.8176C7.05685 19.468 6.96158 18.9833 6.96158 18.4472C6.96158 17.385 6.85655 16.5249 8.33594 16.5249ZM4.88953 20.0822L5.16636 17.2079C5.16636 15.8101 6.01067 14.2234 7.20509 13.7238L26.0756 13.6998C27.3099 14.1803 28.1908 15.7828 28.1908 17.2079L28.4213 20.1303L28.5035 21.1734C28.5035 21.6225 28.1453 21.9862 27.704 21.9862H5.58485C5.14438 21.9862 4.78613 21.6225 4.78613 21.1734L4.88953 20.0822ZM8.89584 8.5907C8.89584 8.5907 9.2321 7.10094 10.9012 7.10094H22.3886C23.4063 7.10094 24.0854 7.65525 24.394 8.5907L25.7667 12.7609L7.5166 12.7849L8.89584 8.5907ZM4.69351 13.2605C3.84838 14.1844 3.3444 15.404 3.32078 16.7215L2.94789 21.0076L2.93974 21.0905V21.1733C2.93974 22.2024 3.51619 23.0881 4.35318 23.5405V25.882C4.35318 26.6219 4.94265 27.2227 5.66972 27.2227H8.50799C9.23425 27.2227 9.82535 26.6219 9.82535 25.882V23.8645H23.4288V25.882C23.4288 26.6219 24.0191 27.2227 24.7462 27.2227H27.5845C28.3124 27.2227 28.9018 26.6219 28.9018 25.882V23.5596C29.7567 23.1138 30.3486 22.2165 30.3486 21.1733V21.1045L30.3454 21.0358L30.0368 16.738C30.0173 15.4074 29.5117 14.1844 28.6592 13.2605H29.8903C30.1736 13.2605 30.4056 13.0236 30.4056 12.7361L30.6719 11.2273C30.6719 10.9389 30.439 10.7028 30.1557 10.7028H27.0357L26.1433 7.9942C25.5718 6.25919 24.1698 5.22266 22.3883 5.22266H10.9009C8.50799 5.22266 7.40802 7.01152 7.12712 8.05551L6.25513 10.7028H3.18807C2.90392 10.7028 2.67188 10.9389 2.67188 11.2273L2.9373 12.7361C2.9373 13.0236 3.17016 13.2605 3.4535 13.2605H4.69351Z" fill="black"/>
</svg>
