<svg width="33" height="33" viewBox="0 0 33 33" fill="none" xmlns="http://www.w3.org/2000/svg">
<path fill-rule="evenodd" clip-rule="evenodd" d="M21.2666 12.0315C21.4694 11.6976 21.755 11.2826 22.0915 10.8254C22.4812 10.8095 23.3654 10.769 24.3544 10.7094C24.6081 10.6943 24.8018 10.4645 24.7866 10.2006C24.7714 9.93582 24.5587 9.7164 24.3005 9.7482C23.7657 9.78159 23.2735 9.80703 22.8625 9.8269C23.2195 9.37931 23.594 8.92934 23.9655 8.51037C24.3582 8.49765 25.0897 8.46347 25.9237 8.38079C26.1767 8.35535 26.3628 8.11923 26.3377 7.85608C26.3126 7.59055 26.0939 7.41167 25.8356 7.42201C25.5151 7.45461 25.2097 7.47925 24.9302 7.49833C25.2378 7.19782 25.5272 6.93467 25.7619 6.77249C25.9746 6.62621 26.0324 6.32808 25.8933 6.10548C25.7536 5.88447 25.4664 5.82087 25.2568 5.97033C24.9119 6.20804 24.498 6.58487 24.0581 7.03405C24.0597 6.84245 24.0711 6.63734 24.0961 6.43302C24.128 6.16908 23.951 5.92899 23.6981 5.89401C23.4345 5.85664 23.2157 6.04665 23.1838 6.30821C23.0965 7.01974 23.1542 7.71219 23.1846 7.98328C22.8306 8.38874 22.4804 8.8093 22.1477 9.22826C22.125 8.97068 22.1098 8.66619 22.1098 8.3156C22.1098 8.05006 21.9032 7.83462 21.6494 7.83462C21.395 7.83462 21.1906 8.05006 21.1906 8.3156C21.1906 9.26324 21.2955 9.91356 21.3638 10.2443C21.0494 10.6696 20.7957 11.0401 20.5959 11.3533C19.4109 9.67585 19.9282 7.32025 21.3213 6.12853C23.2833 4.45425 25.6457 4.14579 27.1201 4.14579C27.9777 4.14579 28.5352 4.25153 28.5352 4.25153C28.5352 4.25153 27.5683 9.83247 26.0354 11.6642C25.3548 12.479 24.4068 12.8932 23.4482 12.8932C22.6939 12.8932 21.9389 12.6293 21.294 12.1118C21.2856 12.0847 21.2765 12.0577 21.2666 12.0315ZM28.8595 2.35701C28.785 2.3435 28.1128 2.22266 27.12 2.22266C25.2354 2.22266 22.4985 2.64083 20.1597 4.63788C18.9892 5.63721 18.2189 7.19542 18.0997 8.80372C17.9964 10.195 18.3777 11.525 19.1677 12.5959L18.5121 13.5443C18.2144 13.9736 18.3078 14.5763 18.718 14.8871C18.8806 15.0103 19.0697 15.07 19.2566 15.07C19.5422 15.07 19.8217 14.9308 20.0025 14.6717L20.5334 13.9029C21.4017 14.4888 22.4097 14.8171 23.448 14.8171C24.9695 14.8171 26.4158 14.1303 27.4185 12.9322C29.1975 10.8071 30.1675 5.61336 30.3437 4.59416L30.6719 2.69648L28.8595 2.35701ZM27.6151 25.599H25.988C25.5816 24.0495 24.2379 22.8992 22.6283 22.8992C21.0202 22.8992 19.6757 24.0495 19.2693 25.599H12.8484C12.442 24.0495 11.0983 22.8992 9.48869 22.8992C7.96493 22.8992 6.67892 23.9327 6.20113 25.3589L4.53076 25.0997L4.56342 23.7029H5.7241C5.97932 23.7029 6.18442 23.4883 6.18442 23.2219C6.18442 22.9564 5.97932 22.7409 5.7241 22.7409H5.17187L5.55926 21.1565L6.76475 21.1573L6.88401 20.8671C6.9463 20.7192 7.3337 19.7215 7.24938 18.824L24.2706 20.5563C24.4696 20.6072 24.6686 20.6588 24.8593 20.7248V21.3298C24.8593 22.5676 25.8224 23.5741 27.0036 23.5741H27.6151V25.599ZM24.0089 27.5229C23.7119 27.9895 23.2045 28.2988 22.6287 28.2988C22.0544 28.2988 21.547 27.9895 21.2493 27.5229C21.0738 27.2478 20.9697 26.9171 20.9697 26.5609C20.9697 26.2047 21.0738 25.8756 21.2493 25.599C21.547 25.1323 22.0544 24.823 22.6287 24.823C23.2045 24.823 23.7119 25.1323 24.0089 25.599C24.1866 25.8756 24.2892 26.2047 24.2892 26.5609C24.2892 26.9171 24.1866 27.2478 24.0089 27.5229ZM8.10885 27.5229C7.93338 27.2478 7.83008 26.9171 7.83008 26.5609C7.83008 26.2047 7.93338 25.8756 8.10885 25.599C8.40662 25.1323 8.91403 24.823 9.48905 24.823C10.0648 24.823 10.5722 25.1323 10.87 25.599C11.0462 25.8756 11.1495 26.2047 11.1495 26.5609C11.1495 26.9171 11.0462 27.2478 10.87 27.5229C10.5722 27.9895 10.0648 28.2988 9.48905 28.2988C8.91403 28.2988 8.40662 27.9895 8.10885 27.5229ZM5.60349 20.1953L5.14697 18.6117C5.14849 18.6109 5.15001 18.6109 5.15229 18.6101L6.29017 18.7253C6.40032 19.091 6.30309 19.7048 6.14509 20.1953H5.60349ZM15.4264 16.8506L15.3512 18.6815L7.24316 17.8563C8.22761 17.5232 9.3541 17.179 10.4502 16.9253C12.3636 16.4825 14.3022 16.5724 15.4264 16.8506ZM16.3328 17.2141L20.9079 19.247L16.269 18.7747L16.3328 17.2141ZM27.6153 22.6113H27.0038C26.3285 22.6113 25.7793 22.0381 25.7793 21.3298V21.0992C26.4903 21.4419 27.1246 21.8696 27.6153 22.3752V22.6113ZM23.9304 18.4979L16.2812 15.1008C16.247 15.0849 16.2136 15.0738 16.1771 15.0619C14.8425 14.658 12.4338 14.4958 10.0532 15.046C6.99581 15.7543 3.8108 17.0836 3.67787 17.14C3.23578 17.3245 3.00182 17.8341 3.14007 18.3103L3.79789 20.5959L3.43859 22.0683L3.33377 22.1104C2.98435 22.2495 2.74888 22.5954 2.73976 22.9857L2.67216 25.9034C2.66076 26.3899 2.99802 26.8081 3.45682 26.8797L6.0615 27.2811C6.3813 28.9562 7.79568 30.2227 9.48883 30.2227C11.0984 30.2227 12.4422 29.0731 12.8486 27.5228H19.2695C19.6759 29.0731 21.0204 30.2227 22.6284 30.2227C24.238 30.2227 25.5818 29.0731 25.9882 27.5228H28.5351C29.0433 27.5228 29.4535 27.0927 29.4535 26.5609V21.9935C29.4535 21.7582 29.3722 21.5324 29.2241 21.3567C28.0953 20.0188 26.3148 19.0083 24.3383 18.5861L23.9304 18.4979Z" fill="black"/>
</svg>
