<svg width="33" height="33" viewBox="0 0 33 33" fill="none" xmlns="http://www.w3.org/2000/svg">
<path fill-rule="evenodd" clip-rule="evenodd" d="M30.0979 14.1842C29.0874 14.1842 28.5583 13.9334 28.0897 13.711C27.6822 13.5176 27.3297 13.3497 26.5811 13.3497C25.8316 13.3497 25.4792 13.5176 25.0702 13.711C24.6023 13.9334 24.0725 14.1842 23.0627 14.1842C22.0552 14.1842 21.5261 13.9334 21.0597 13.711C20.6514 13.5176 20.2982 13.3497 19.5519 13.3497C19.2341 13.3497 18.9775 13.0959 18.9775 12.7817C18.9775 12.4667 19.2341 12.2136 19.5519 12.2136C20.5609 12.2136 21.0899 12.4644 21.5571 12.6869C21.9646 12.8802 22.317 13.0481 23.0627 13.0481C23.8113 13.0481 24.1645 12.8802 24.5728 12.6869C25.0407 12.4644 25.5705 12.2136 26.5811 12.2136C27.5901 12.2136 28.1206 12.4644 28.587 12.6869C28.9961 12.8802 29.3485 13.0481 30.0979 13.0481C30.4149 13.0481 30.6722 13.3012 30.6722 13.6162C30.6722 13.9304 30.4149 14.1842 30.0979 14.1842ZM30.0979 20.2317C29.0874 20.2317 28.5583 19.9809 28.0897 19.7585C27.6822 19.5644 27.3297 19.3972 26.5811 19.3972C25.8316 19.3972 25.4792 19.5644 25.0702 19.7585C24.6023 19.9809 24.0725 20.2317 23.0627 20.2317C22.0552 20.2317 21.5261 19.9809 21.0597 19.7585C20.6514 19.5644 20.2982 19.3972 19.5519 19.3972C19.2341 19.3972 18.9775 19.1441 18.9775 18.8292C18.9775 18.5149 19.2341 18.2604 19.5519 18.2604C20.5609 18.2604 21.0899 18.5127 21.5571 18.7344C21.9646 18.9277 22.317 19.0956 23.0627 19.0956C23.8113 19.0956 24.1645 18.9277 24.5728 18.7344C25.0407 18.5127 25.5705 18.2604 26.5811 18.2604C27.5901 18.2604 28.1206 18.5127 28.587 18.7344C28.9961 18.9277 29.3485 19.0956 30.0979 19.0956C30.4149 19.0956 30.6722 19.3494 30.6722 19.6637C30.6722 19.9772 30.4149 20.2317 30.0979 20.2317ZM19.5519 6.27271C20.3337 6.27271 20.7601 6.47499 21.1028 6.63771C21.4009 6.77953 21.6363 6.89075 22.1571 6.89075C22.6778 6.89075 22.9133 6.77953 23.2129 6.63771C23.5563 6.47499 23.9819 6.27271 24.7653 6.27271C25.5486 6.27271 25.975 6.47499 26.3177 6.63771C26.6165 6.77953 26.8527 6.89075 27.3735 6.89075C27.6912 6.89075 27.9486 7.14528 27.9486 7.45953C27.9486 7.77228 27.6912 8.02681 27.3735 8.02681C26.5916 8.02681 26.1652 7.82453 25.8203 7.66181C25.5222 7.52073 25.2875 7.40877 24.7653 7.40877C24.2438 7.40877 24.0076 7.52073 23.7087 7.66181C23.3661 7.82453 22.9397 8.02681 22.1571 8.02681C21.3737 8.02681 20.9473 7.82453 20.6054 7.66181C20.3073 7.52073 20.0718 7.40877 19.5519 7.40877C19.2341 7.40877 18.9775 7.15424 18.9775 6.84074C18.9775 6.52649 19.2341 6.27271 19.5519 6.27271ZM27.3735 29.3584C26.5916 29.3584 26.1652 29.1561 25.8203 28.9941C25.5222 28.8508 25.2875 28.7396 24.7653 28.7396C24.2438 28.7396 24.0076 28.8508 23.7087 28.9926C23.3668 29.1561 22.9397 29.3584 22.1571 29.3584C21.3737 29.3584 20.9473 29.1561 20.6054 28.9926C20.3073 28.8508 20.0718 28.7396 19.5519 28.7396C19.2341 28.7396 18.9775 28.4851 18.9775 28.1708C18.9775 27.8573 19.2341 27.6028 19.5519 27.6028C20.3337 27.6028 20.7601 27.8058 21.1028 27.9685C21.4009 28.1104 21.6363 28.2223 22.1571 28.2223C22.6778 28.2223 22.9133 28.1104 23.2129 27.9685C23.5547 27.8058 23.9819 27.6028 24.7653 27.6028C25.5486 27.6028 25.975 27.8058 26.3177 27.9685C26.6165 28.1104 26.8527 28.2223 27.3735 28.2223C27.6912 28.2223 27.9486 28.4761 27.9486 28.7903C27.9486 29.1046 27.6912 29.3584 27.3735 29.3584ZM17.0686 29.2433C17.0686 29.7845 16.6263 30.2227 16.0799 30.2227C15.5328 30.2227 15.0898 29.7845 15.0898 29.2433V26.7473L12.9804 28.8336C12.594 29.2157 11.9676 29.2157 11.5812 28.8336C11.1933 28.4514 11.1933 27.8318 11.5812 27.4489L15.0898 23.978V17.8252L9.47636 21.0297L8.25376 25.5485C8.11112 26.071 7.57152 26.3823 7.04097 26.2412C6.51344 26.1009 6.20024 25.5649 6.34137 25.0417L7.05305 22.4143L5.00934 23.5809C4.53615 23.8504 3.92938 23.6899 3.65618 23.2227C3.38449 22.7546 3.54599 22.156 4.01919 21.8858L6.06364 20.7184L3.40562 20.0153C2.87734 19.8742 2.56414 19.3375 2.70602 18.815C2.84715 18.294 3.386 17.9805 3.9173 18.1231L8.48847 19.3338L13.9366 16.2227L8.48696 13.1115L3.9173 14.3223C3.39128 14.4633 2.84715 14.1528 2.70602 13.6303C2.56414 13.1086 2.87734 12.5719 3.40562 12.4315L6.06289 11.7269L4.01919 10.5603C3.54599 10.2893 3.38449 9.69067 3.65618 9.22266C3.92938 8.75539 4.53388 8.59342 5.00934 8.86362L7.0538 10.0318L6.34137 7.40287C6.20024 6.87962 6.51344 6.34294 7.04097 6.2041C7.57001 6.06377 8.11112 6.37354 8.25376 6.89604L9.47787 11.4157L15.0898 14.6201V8.46727L11.5812 4.99638C11.1933 4.61346 11.1933 3.99393 11.5812 3.61176C11.9676 3.22884 12.594 3.22884 12.9804 3.61176L15.0898 5.69802V3.20197C15.0898 2.66156 15.5328 2.22266 16.0799 2.22266C16.6263 2.22266 17.0686 2.66156 17.0686 3.20197V29.2433Z" fill="black"/>
</svg>
