<svg width="33" height="33" viewBox="0 0 33 33" fill="none" xmlns="http://www.w3.org/2000/svg">
<path fill-rule="evenodd" clip-rule="evenodd" d="M14.3512 4.98891V4.98145H19.0915V4.98891V6.82587H17.6306V7.45137C17.6306 7.53423 17.6014 7.60961 17.5815 7.68575H15.7638C15.7423 7.60961 15.7139 7.53423 15.7139 7.45137V6.83333L14.3512 6.82587V4.98891ZM4.67188 8.6785C4.67188 9.18682 5.09695 9.5996 5.62024 9.5996H8.46535C8.98864 9.5996 9.41295 9.18682 9.41295 8.6785V6.83334H13.4036C13.4082 7.34016 13.8302 7.7492 14.3512 7.7492H14.7909C14.8845 8.31275 15.242 8.78898 15.7339 9.06142V9.81457H15.3686C15.1062 9.81457 14.8945 10.0206 14.8945 10.2759C14.8945 10.5311 15.1062 10.7371 15.3686 10.7371H18.0741C18.3365 10.7371 18.549 10.5311 18.549 10.2759C18.549 10.0206 18.3365 9.81457 18.0741 9.81457H17.6306V9.05172C18.1125 8.77852 18.4608 8.30529 18.5536 7.7492H19.0915C19.6133 7.7492 20.0353 7.34016 20.0384 6.83334H23.9323V8.6785C23.9323 9.18682 24.3559 9.5996 24.8799 9.5996H27.7243C28.2476 9.5996 28.6719 9.18682 28.6719 8.6785V3.14449C28.6719 2.63468 28.2476 2.22266 27.7243 2.22266H24.8799C24.3559 2.22266 23.9323 2.63468 23.9323 3.14449V4.98891H20.0391V4.98145C20.0391 4.47313 19.6148 4.06036 19.0915 4.06036H14.3512C13.8272 4.06036 13.4028 4.47313 13.4028 4.98145V4.98891H9.41295V3.14449C9.41295 2.63468 8.98864 2.22266 8.46535 2.22266H5.62024C5.09695 2.22266 4.67188 2.63468 4.67188 3.14449V8.6785ZM12.5121 24.3191H13.9201V29.0455H12.5121V24.3191ZM14.3957 22.8792H18.9142V23.3979C18.6557 23.4024 18.4477 23.6054 18.4477 23.8592V27.5421H14.8676V23.8592C14.8676 23.6039 14.6565 23.3994 14.3957 23.3979V22.8792ZM15.5443 20.9138H17.7434L18.4838 21.9558H14.8162L15.5443 20.9138ZM15.5014 18.228L16.0653 17.1233H17.3237L17.7979 18.228V19.9903H15.5014V18.228ZM17.0938 29.2991H16.1101L15.118 28.4646H18.1618L17.0938 29.2991ZM19.3963 24.3191H20.8036V29.0455H19.3963V24.3191ZM4.67188 28.5745C4.67188 29.0843 5.09695 29.4971 5.62024 29.4971H8.46535C8.98864 29.4971 9.41295 29.0843 9.41295 28.5745V26.7293H11.5637V29.5075C11.5637 29.7628 11.7754 29.9688 12.0371 29.9688H14.3926C14.6558 29.9688 14.8676 29.7628 14.8676 29.5075V29.4739L15.6234 30.1092C15.7085 30.1823 15.819 30.2226 15.9334 30.2226H17.26C17.3674 30.2226 17.4733 30.186 17.5562 30.1203L18.4478 29.4195V29.5075C18.4478 29.7628 18.6595 29.9688 18.9212 29.9688H21.2768C21.5384 29.9688 21.7517 29.7628 21.7517 29.5075V26.7293H23.9323V28.5745C23.9323 29.0843 24.3559 29.4971 24.8799 29.4971H27.7243C28.2476 29.4971 28.6719 29.0843 28.6719 28.5745V23.0405C28.6719 22.5314 28.2476 22.1179 27.7243 22.1179H24.8799C24.3559 22.1179 23.9323 22.5314 23.9323 23.0405V24.8849H21.7517V23.8593C21.7517 23.6033 21.5384 23.398 21.2768 23.398H19.8619V22.4172C19.8619 22.3239 19.8327 22.2321 19.7775 22.156L18.7462 20.7027V18.2283C18.7462 18.1051 18.7217 17.9857 18.6733 17.8737L18.1984 16.7675C18.0933 16.5205 17.8823 16.3376 17.6306 16.2547V12.5816H18.0741C18.3365 12.5816 18.549 12.3755 18.549 12.121C18.549 11.865 18.3365 11.659 18.0741 11.659H15.3686C15.1062 11.659 14.8945 11.865 14.8945 12.121C14.8945 12.3755 15.1062 12.5816 15.3686 12.5816H15.7339V16.2667C15.5121 16.3465 15.3234 16.5003 15.2159 16.7138L14.652 17.8185C14.5868 17.9454 14.5538 18.0857 14.5538 18.2283V20.69L13.5294 22.1582C13.4765 22.2351 13.4473 22.3247 13.4473 22.4172V23.398H12.0371C11.7754 23.398 11.5637 23.6033 11.5637 23.8593V24.8849H9.41295V23.0405C9.41295 22.5314 8.98864 22.1179 8.46535 22.1179H5.62024C5.09695 22.1179 4.67188 22.5314 4.67188 23.0405V28.5745Z" fill="black"/>
</svg>
