<svg width="33" height="33" viewBox="0 0 33 33" fill="none" xmlns="http://www.w3.org/2000/svg">
<path fill-rule="evenodd" clip-rule="evenodd" d="M15.9923 24.488L22.5841 16.9776H19.4337L20.9177 13.9308H17.4277L15.293 19.1306H17.949L15.9923 24.488ZM8.17529 21.2037H8.93971C9.18729 21.2037 9.42514 21.3063 9.59642 21.4881L13.2704 25.3971H21.2819L25.5026 21.7V11.3624H13.3864L9.71236 15.2714C9.54033 15.4532 9.30322 15.5558 9.0549 15.5558H8.17529V21.2037ZM4.48269 16.5547H6.36532V14.6432C6.36532 14.1393 6.77071 13.7304 7.27035 13.7304H8.66605L12.3408 9.82208C12.5113 9.63953 12.7492 9.53694 12.9968 9.53694H26.4077C26.9074 9.53694 27.3135 9.94655 27.3135 10.4497V14.6107H28.8618V10.4497C28.8618 9.94655 29.2679 9.53694 29.7668 9.53694C30.268 9.53694 30.6719 9.94655 30.6719 10.4497V22.1166C30.6719 22.6212 30.268 23.0293 29.7668 23.0293C29.2679 23.0293 28.8618 22.6212 28.8618 22.1166V18.2618H27.3135V22.1166C27.3135 22.3813 27.1991 22.6325 27.0009 22.8053L22.2132 26.9995C22.0486 27.1436 21.8377 27.2228 21.6208 27.2228H12.8823C12.6332 27.2228 12.3946 27.1194 12.2249 26.9384L8.55012 23.0293H7.27035C6.77071 23.0293 6.36532 22.6212 6.36532 22.1166V20.2065H4.48269V22.1166C4.48269 22.6212 4.07655 23.0293 3.57691 23.0293C3.07652 23.0293 2.67188 22.6212 2.67188 22.1166V14.6432C2.67188 14.1393 3.07652 13.7304 3.57691 13.7304C4.07655 13.7304 4.48269 14.1393 4.48269 14.6432V16.5547ZM18.9002 8.23932V7.04819H16.5524C16.052 7.04819 15.6473 6.64009 15.6473 6.13543C15.6473 5.63076 16.052 5.22266 16.5524 5.22266H24.869C25.3671 5.22266 25.774 5.63076 25.774 6.13543C25.774 6.64009 25.3671 7.04819 24.869 7.04819H22.5211V8.23932H18.9002Z" fill="black"/>
</svg>
