<?xml version="1.0" encoding="UTF-8"?>
<svg version="1.1" xmlns="http://www.w3.org/2000/svg" width="22" height="21">
<path d="M0 0 C7.26 0 14.52 0 22 0 C22 6.93 22 13.86 22 21 C14.74 21 7.48 21 0 21 C0 14.07 0 7.14 0 0 Z " fill="#FCFCFC" transform="translate(0,0)"/>
<path d="M0 0 C4.11289267 0.85685264 5.59686932 2.20235933 8 5.625 C8 9.14633145 7.69441423 11.46764294 5.875 14.5 C2.84264294 16.31941423 0.52133145 16.625 -3 16.625 C-6.42264067 14.22186932 -7.76814736 12.73789267 -8.625 8.625 C-7.58039389 3.61089068 -5.01410932 1.04460611 0 0 Z " fill="#B5B5B5" transform="translate(11,2.375)"/>
<path d="M0 0 C1.32 0.33 2.64 0.66 4 1 C4.33 2.65 4.66 4.3 5 6 C3.35 5.67 1.7 5.34 0 5 C0 3.35 0 1.7 0 0 Z " fill="#FBFBFB" transform="translate(12,5)"/>
<path d="M0 0 C0.66 0 1.32 0 2 0 C2 1.65 2 3.3 2 5 C2.99 5.33 3.98 5.66 5 6 C3.35 6.33 1.7 6.66 0 7 C0 4.69 0 2.38 0 0 Z " fill="#666666" transform="translate(10,5)"/>
</svg>
