<svg width="33" height="33" viewBox="0 0 33 33" fill="none" xmlns="http://www.w3.org/2000/svg">
<path fill-rule="evenodd" clip-rule="evenodd" d="M19.1758 15.6837C18.7909 15.5852 18.3866 15.7449 18.1696 16.0793L16.3913 18.8179L7.00335 12.6742L10.745 6.91187L20.1337 13.0556L19.8944 13.4251C19.6142 13.8557 19.7346 14.432 20.1634 14.7149L23.1619 16.6884L19.1758 15.6837ZM7.12835 4.54565L9.07163 5.81679L7.20117 8.69869L5.76322 7.75821L7.12835 4.54565ZM29.1307 19.3172C29.3128 18.8999 29.1693 18.4118 28.7889 18.161L21.958 13.6639L22.1995 13.2929C22.3348 13.0846 22.3809 12.8331 22.3311 12.5913C22.2791 12.3479 22.1356 12.1367 21.929 12.0016L16.4448 8.41285L17.2184 7.22158L18.5092 8.06577C18.9372 8.34717 19.5161 8.22625 19.7955 7.79333C20.0772 7.36116 19.9546 6.78343 19.5243 6.50129L17.4799 5.16372C17.4703 5.15775 17.4636 5.15252 17.4554 5.14655C17.4465 5.14207 17.4391 5.1361 17.4301 5.13088L15.1956 3.6694C14.7668 3.38726 14.1879 3.50892 13.9092 3.94184C13.629 4.37401 13.7502 4.95174 14.1797 5.23388L15.6615 6.20198L14.8864 7.394L10.9813 4.83828C10.9597 4.8241 10.9359 4.8241 10.9144 4.81216C10.8973 4.79723 10.8862 4.77558 10.8653 4.76215L7.21584 2.37438C6.98547 2.2236 6.70011 2.18255 6.43778 2.26316C6.17471 2.34377 5.96144 2.5356 5.85368 2.79013L3.74691 7.74556C3.5693 8.1628 3.7157 8.64723 4.09395 8.89429L6.30105 10.3379L4.93592 12.4383C4.8029 12.645 4.75534 12.8973 4.80661 13.1399C4.85566 13.3825 5.00131 13.5944 5.20865 13.7288L16.1564 20.8921C16.308 20.9906 16.4841 21.0436 16.6632 21.0436C16.7257 21.0436 16.7918 21.0362 16.855 21.0242C17.0957 20.9727 17.3083 20.8264 17.442 20.6197L19.3653 17.6564L28.0517 19.8479C28.4998 19.9606 28.9494 19.7344 29.1307 19.3172Z" fill="black"/>
<path fill-rule="evenodd" clip-rule="evenodd" d="M28.0174 21.7404C27.8368 21.5023 27.4831 21.5008 27.2981 21.7345C26.4962 22.7488 24.6562 25.2844 24.6562 27.2019C24.6562 28.8702 26.0021 30.2227 27.6637 30.2227C29.3253 30.2227 30.6719 28.8702 30.6719 27.2019C30.6719 25.4315 28.8133 22.7906 28.0174 21.7404Z" fill="black"/>
</svg>
