<svg width="33" height="33" viewBox="0 0 33 33" fill="none" xmlns="http://www.w3.org/2000/svg">
<path fill-rule="evenodd" clip-rule="evenodd" d="M21.2444 22.3727C20.9421 22.1397 20.5197 21.7533 20.3286 21.3263C20.3674 21.2157 20.4018 21.1175 20.4286 21.0435C20.6279 20.4817 22.5207 20.3251 25.1532 21.3442C26.3668 21.8141 27.4685 22.4452 28.1738 23.0763C28.7112 23.5562 28.9881 24.0144 28.9247 24.2925C27.9663 24.6026 26.3302 24.5084 24.5091 23.9513C23.2201 23.557 22.0304 22.982 21.2444 22.3727ZM26.3199 27.6282C23.6748 28.6465 20.5131 28.6972 17.641 27.7637C14.9832 26.9293 12.4067 25.3016 10.1907 23.0616C8.02394 20.8231 6.41401 18.2892 5.40192 15.5342C4.84213 14.0062 4.5085 12.4931 4.41222 11.0447C4.31967 9.39756 4.52417 7.90548 5.0347 6.56534L5.08321 6.42119C5.09814 6.3947 5.11083 6.36743 5.12352 6.33782C5.4146 5.64905 6.002 5.07404 7.00962 4.49435C6.85885 5.84618 7.32235 7.69355 8.07022 9.39522C8.74495 10.9309 9.65777 12.3529 10.6221 13.1772C10.0705 13.4788 9.4764 13.7889 9.08082 13.8278C8.79794 13.8566 8.54566 14.0288 8.40982 14.2899C8.27249 14.5509 8.26876 14.8641 8.39788 15.1298C8.92781 16.2097 9.46744 17.1322 10.0392 17.9355C10.7632 18.9944 11.5707 19.9769 12.4321 20.8456C14.2032 22.6759 16.2841 24.1134 18.4628 25.004C18.7322 25.1302 19.0442 25.1006 19.289 24.9261C19.5331 24.7539 19.6742 24.4625 19.666 24.1547C19.6525 23.688 19.8093 23.0109 19.9884 22.3899C20.181 22.6182 20.4191 22.8535 20.7318 23.0951C21.6088 23.7729 22.8642 24.383 24.2674 24.8123C25.4683 25.1809 26.6468 25.3749 27.644 25.3749C27.8112 25.3749 27.9739 25.3694 28.1306 25.3585C28.2769 25.3476 28.4038 25.3266 28.5329 25.3071C27.9687 26.5716 27.3798 27.2573 26.564 27.5362C26.5259 27.5487 26.3229 27.6274 26.3199 27.6282ZM11.9522 11.8735C11.9298 12.1159 11.8589 12.5366 11.6298 12.648C11.585 12.6683 11.538 12.6963 11.4932 12.7189C10.6423 12.1642 9.63994 10.8147 8.85251 9.02028C7.92103 6.90254 7.62771 4.94921 8.01881 4.02513C8.23003 4.03682 8.47485 4.19109 8.62412 4.30095C10.3102 5.5476 12.1455 9.72463 11.9522 11.8735ZM21.7864 18.8065H21.77C19.7003 18.8065 19.0308 19.814 18.8158 20.4178C18.5486 21.1712 18.256 22.0525 18.0888 22.8784C16.4946 22.0758 14.9727 20.9453 13.6359 19.5623C12.8403 18.7598 12.1014 17.863 11.4289 16.8797C11.0826 16.3927 10.7519 15.8621 10.4265 15.2707C10.8124 15.1009 11.199 14.8905 11.5782 14.6832C11.8431 14.5391 12.1021 14.3965 12.3469 14.2781C12.8791 14.0241 13.5404 13.4304 13.6636 12.0411C13.9143 9.26657 11.7969 4.44907 9.61818 2.83622C8.52996 2.03058 7.66789 2.16459 7.13572 2.41859C5.84449 3.03646 4.2756 3.95197 3.56878 5.56793C3.56131 5.58507 3.5531 5.60299 3.54489 5.62013L3.48593 5.76895C3.45682 5.84219 3.4292 5.91465 3.42025 5.9466C2.83359 7.48776 2.58953 9.23774 2.69626 11.1591C2.80448 12.7953 3.17469 14.4838 3.79642 16.1753C4.89509 19.1719 6.63938 21.9177 8.98674 24.344C11.405 26.7889 14.2263 28.5654 17.1379 29.4809C18.6613 29.9764 20.2645 30.2227 21.8468 30.2227C23.6053 30.2227 25.3421 29.9172 26.9207 29.3103C26.9901 29.2822 27.0566 29.2511 27.1446 29.2043C29.0434 28.5241 29.9249 26.6775 30.5377 24.9571C31.3318 22.7233 28.4553 20.7076 25.7512 19.6605C24.3345 19.1127 22.9269 18.8088 21.7864 18.8065Z" fill="black"/>
</svg>
