<svg width="33" height="33" viewBox="0 0 33 33" fill="none" xmlns="http://www.w3.org/2000/svg">
<path fill-rule="evenodd" clip-rule="evenodd" d="M28.8102 8.94922H4.53454V6.3501H28.8102V8.94922ZM8.05982 21.8888V9.85889H12.3159V21.8888C12.3159 22.1404 12.5242 22.344 12.7818 22.344C13.0384 22.344 13.2476 22.1404 13.2476 21.8888V9.85889H17.5029V21.8888C17.5029 22.1404 17.7112 22.344 17.9687 22.344C18.2263 22.344 18.4346 22.1404 18.4346 21.8888V9.85889H22.6907V21.8888C22.6907 22.1404 22.899 22.344 23.1565 22.344C23.4132 22.344 23.6224 22.1404 23.6224 21.8888V9.85889H27.8777V23.203H26.2159V11.2252C26.2159 10.9744 26.0076 10.7709 25.75 10.7709C25.4934 10.7709 25.2842 10.9744 25.2842 11.2252V23.203H21.0281V11.2252C21.0281 10.9744 20.8189 10.7709 20.5631 10.7709C20.3047 10.7709 20.0964 10.9744 20.0964 11.2252V23.203H15.8403V11.2252C15.8403 10.9744 15.6319 10.7709 15.3744 10.7709C15.1169 10.7709 14.9094 10.9744 14.9094 11.2252V23.203H10.6533V11.2252C10.6533 10.9744 10.4441 10.7709 10.1874 10.7709C9.92993 10.7709 9.72241 10.9744 9.72241 11.2252V23.203H5.46549V9.85889H7.12809V21.8888C7.12809 22.1404 7.33644 22.344 7.59395 22.344C7.85064 22.344 8.05982 22.1404 8.05982 21.8888ZM28.8102 26.7124H4.53454V24.1133H28.8102V26.7124ZM5.46448 4.04175H8.05964V5.44065H5.46448V4.04175ZM30.6719 10.7683V4.53109H25.7499V2.92129H17.9686V4.53109H9.92147V2.22266H3.60276V4.53109H2.67188V10.7683H3.60276V22.2934H2.67188V28.5323H7.59383V30.2227H12.7816V28.5323H20.5629V30.2227H25.7499V28.5323H30.6719V22.2934H29.741V10.7683H30.6719Z" fill="black"/>
</svg>
