<svg width="33" height="33" viewBox="0 0 33 33" fill="none" xmlns="http://www.w3.org/2000/svg">
<path fill-rule="evenodd" clip-rule="evenodd" d="M29.2913 4.92212V8.46691H9.49997H9.03885V4.92212H12.9515V6.19105C12.9515 6.68518 13.3642 7.08601 13.8722 7.08601C14.3809 7.08601 14.7929 6.68518 14.7929 6.19105V4.92212H23.5373V6.19105C23.5373 6.68518 23.95 7.08601 24.4587 7.08601C24.9668 7.08601 25.3787 6.68518 25.3787 6.19105V4.92212H29.2913ZM29.2913 24.7184H13.6793L14.2464 24.2712L18.2682 21.1027C19.7323 21.4169 21.2478 21.0788 22.416 20.1502C23.8339 19.0231 24.471 17.2302 24.0791 15.4731C24.0115 15.1686 23.7855 14.9215 23.4819 14.8185C23.1807 14.717 22.8441 14.7737 22.5958 14.9708L20.7398 16.4457L19.899 16.0195L19.6346 15.1357L21.4907 13.6585C21.7374 13.4615 21.8634 13.1539 21.8196 12.8457C21.7743 12.5374 21.5691 12.2724 21.2747 12.1485C19.5793 11.4297 17.6441 11.6827 16.2262 12.8091C15.0596 13.7354 14.4155 15.1111 14.4455 16.5629L9.49997 20.46L9.03885 20.822V9.49048H29.2913V24.7184ZM6.4374 28.697C6.4374 28.697 6.43663 28.697 6.43509 28.6985C6.19454 28.891 5.91326 28.9299 5.57433 28.8254C5.23157 28.7171 4.86959 28.4589 4.58139 28.1163C4.08184 27.5228 3.79825 26.6809 4.35774 26.2367L15.6883 17.311C15.8112 17.2139 15.8743 17.0609 15.855 16.9086C15.7021 15.7323 16.1678 14.588 17.1008 13.846C17.7318 13.3452 18.5065 13.0862 19.295 13.0862C19.5148 13.0862 19.7369 13.1056 19.9559 13.1466L18.289 14.4723C18.1468 14.5858 18.0869 14.7709 18.1384 14.9425L18.6832 16.7608C18.7186 16.8773 18.8008 16.9743 18.9123 17.0325L20.6392 17.9081C20.8036 17.9902 21.0004 17.9723 21.1441 17.8581L22.8111 16.5324C22.8003 17.5274 22.3476 18.4709 21.5414 19.1121C20.6069 19.8555 19.3573 20.0735 18.2045 19.6951C18.0538 19.6473 17.8901 19.6756 17.7672 19.7712L6.4374 28.697ZM23.5376 3.11762V3.71103H14.7932V3.11762C14.7932 2.62349 14.3812 2.22266 13.8725 2.22266C13.3644 2.22266 12.9517 2.62349 12.9517 3.11762V3.71103H8.57955C8.07078 3.71103 7.65807 4.10963 7.65807 4.60376V21.9097L3.48415 25.1985C2.87701 25.6821 2.59419 26.3875 2.69026 27.1854C2.76173 27.7893 3.05454 28.4208 3.51336 28.9672C3.97217 29.5091 4.55165 29.9121 5.14803 30.0987C5.4101 30.1823 5.66756 30.2227 5.92041 30.2227C6.42611 30.2227 6.90337 30.0599 7.30839 29.7367L11.9765 26.0598H29.7519C30.2592 26.0598 30.6719 25.659 30.6719 25.1656V4.60376C30.6719 4.10963 30.2592 3.71103 29.7519 3.71103H25.379V3.11762C25.379 2.62349 24.967 2.22266 24.459 2.22266C23.9503 2.22266 23.5376 2.62349 23.5376 3.11762Z" fill="black"/>
</svg>
