<svg width="33" height="33" viewBox="0 0 33 33" fill="none" xmlns="http://www.w3.org/2000/svg">
<path fill-rule="evenodd" clip-rule="evenodd" d="M6.28713 11.4849C6.37072 11.3995 6.48268 11.3518 6.6006 11.3518C6.72002 11.3518 6.83123 11.3995 6.91557 11.4849L7.70971 12.2886L5.14817 14.8826L4.35478 14.0781C4.27119 13.9934 4.22491 13.88 4.22491 13.7598C4.22491 13.6396 4.27119 13.5262 4.35478 13.4415L6.28713 11.4849ZM8.33661 12.9252L9.67783 14.2823L7.11779 16.8762L5.77582 15.5184L8.33661 12.9252ZM10.3064 14.9174L18.8628 23.5854L19.0621 23.7865L18.4493 24.1245C18.3903 24.157 18.3456 24.2069 18.3075 24.2583C18.259 24.3271 18.2239 24.4057 18.2194 24.4927L18.1679 25.3697L17.1551 25.5315C17.0185 25.5534 16.9021 25.6381 16.8349 25.7606L16.5013 26.3805L7.74414 17.5114L10.3064 14.9174ZM10.1722 9.52985H29.1187V24.2583H21.1229L20.8699 23.5854L20.837 23.4954C20.7721 23.3246 20.6676 23.1749 20.5377 23.0569L10.1722 12.5585V9.52985ZM10.1722 5.07075V5.0647H13.9443V5.07075V6.3409C13.9443 6.83837 14.3414 7.24058 14.8325 7.24058C15.3214 7.24058 15.7192 6.83837 15.7192 6.3409V5.07075V5.0647H24.1494V5.07075V6.3409C24.1494 6.83837 24.5465 7.24058 25.0368 7.24058C25.5265 7.24058 25.9235 6.83837 25.9235 6.3409V5.07075V5.0647H29.1187V5.07075V8.63019H10.1722V5.07075ZM17.2427 26.8802L17.5091 26.3842L18.6585 26.2013C18.8481 26.1703 18.9899 26.0191 19.0213 25.8323C19.0243 25.8149 19.0317 25.7998 19.0332 25.7824L19.0698 25.1587L19.0907 24.7943L19.5646 24.5334L20.988 28.3235L17.2427 26.8802ZM10.1722 24.2582V22.1949L12.2113 24.2582H10.1722ZM8.61968 20.6224V24.7081C8.61968 25.3288 9.11676 25.8323 9.72879 25.8323H13.7637L15.8221 27.916C15.9617 28.0589 16.1341 28.1579 16.3207 28.2093L21.3587 30.1493C21.4871 30.1985 21.6207 30.2227 21.7535 30.2227C22.0424 30.2227 22.3252 30.1092 22.538 29.8938C22.847 29.5815 22.9455 29.1135 22.7902 28.7007L21.714 25.8323H29.562C30.1755 25.8323 30.6719 25.3288 30.6719 24.7081V4.62006C30.6719 4.00011 30.1755 3.49734 29.562 3.49734H25.9235V3.12159C25.9235 2.62487 25.5264 2.22266 25.0368 2.22266C24.5464 2.22266 24.1494 2.62487 24.1494 3.12159V3.49734H15.7191V3.12159C15.7191 2.62487 15.3213 2.22266 14.8325 2.22266C14.3413 2.22266 13.9443 2.62487 13.9443 3.12159V3.49734H9.72879C9.11676 3.49734 8.61968 4.00011 8.61968 4.62006V10.9859L8.01438 10.3728C7.26129 9.60918 5.94171 9.60843 5.18937 10.372L3.25703 12.3279C2.88011 12.7105 2.67188 13.2193 2.67188 13.7599C2.67188 14.2982 2.87862 14.8077 3.25703 15.1903L8.61968 20.6224Z" fill="black"/>
</svg>
