<svg width="33" height="33" viewBox="0 0 33 33" fill="none" xmlns="http://www.w3.org/2000/svg">
<path fill-rule="evenodd" clip-rule="evenodd" d="M4.42869 16.052C4.5205 9.37576 9.97406 3.97073 16.6718 3.97073C23.383 3.97073 28.8432 9.39517 28.9171 16.0878C28.9171 16.1341 28.9238 16.1781 28.9238 16.2229C28.9238 17.4807 28.7328 18.6937 28.3783 19.8365C26.8326 24.8339 22.1701 28.4759 16.6718 28.4759C11.16 28.4759 6.49086 24.8175 4.95636 19.8014C4.60931 18.669 4.41974 17.468 4.41974 16.2229C4.41974 16.1655 4.42795 16.1102 4.42869 16.052ZM30.6719 16.223C30.6719 8.50327 24.3914 2.22266 16.6719 2.22266C8.95314 2.22266 2.67188 8.50327 2.67188 16.223C2.67188 23.9428 8.95314 30.2227 16.6719 30.2227C24.3914 30.2227 30.6719 23.9428 30.6719 16.223ZM11.5435 18.64C11.6003 18.7721 11.6615 18.8983 11.7271 19.0207C11.7764 19.1118 11.8204 19.2081 11.8779 19.2932C11.9973 19.4738 12.1346 19.6417 12.2847 19.7918C12.8019 20.3091 13.5012 20.6644 14.4215 20.8749C14.7409 20.9488 15.0827 21.004 15.435 21.0383C15.8328 21.0779 16.2299 21.0966 16.6486 21.0966C16.9538 21.0966 17.2553 21.0854 17.5987 21.06C17.9853 21.0309 18.3114 20.9913 18.598 20.9376C19.6481 20.742 20.4393 20.3673 21.0132 19.7925C21.1416 19.6634 21.2625 19.5163 21.3841 19.3409C21.4513 19.2431 21.5058 19.1327 21.564 19.0259C21.6312 18.9028 21.6931 18.7774 21.7498 18.646L25.4585 19.9426C23.9986 23.3658 20.6005 25.7731 16.6486 25.7731C12.6959 25.7731 9.29554 23.3635 7.83643 19.9366L11.5435 18.64ZM21.265 15.2773C21.265 15.4094 21.2627 15.5386 21.2612 15.6685C21.2612 15.7804 21.2612 15.8939 21.2605 16.0051C21.2582 16.1984 21.2455 16.3821 21.2373 16.5694C21.2299 16.6829 21.2314 16.8008 21.2224 16.9113C21.2172 16.9725 21.2075 17.0322 21.2015 17.0919C21.1709 17.3726 21.1202 17.6391 21.0522 17.8929C21.0448 17.9197 21.044 17.9511 21.0366 17.978C20.9582 18.2482 20.844 18.4953 20.7022 18.7244C20.6813 18.758 20.6656 18.7953 20.6432 18.8289C20.5634 18.9431 20.4768 19.0536 20.3761 19.1559C19.9379 19.594 19.2953 19.8919 18.4326 20.0531C18.1572 20.1031 17.8534 20.1374 17.5325 20.1613C17.2533 20.1815 16.9637 20.1964 16.6488 20.1964C16.2435 20.1964 15.8711 20.1763 15.524 20.1419C15.1979 20.1098 14.8993 20.0606 14.6232 19.9964C13.8851 19.8277 13.3186 19.5515 12.923 19.1559C12.8111 19.0439 12.7133 18.923 12.6282 18.7946C12.6118 18.7707 12.6028 18.7438 12.5872 18.7207C12.4409 18.4826 12.3282 18.2235 12.2498 17.9421C12.2453 17.925 12.2438 17.9048 12.2401 17.8869C12.17 17.6241 12.1237 17.3465 12.0931 17.0546C12.0871 16.9941 12.0804 16.9352 12.0752 16.8732C12.067 16.7754 12.067 16.6687 12.0617 16.5694C12.052 16.3701 12.0401 16.1731 12.0379 15.967C12.0364 15.8692 12.0364 15.7677 12.0364 15.6685C12.0364 15.5386 12.0341 15.4094 12.0341 15.2773V15.1385C12.0782 15.1004 12.1588 15.0608 12.2603 15.0205C12.6954 14.8459 13.6537 14.66 15.0807 14.5771C15.5561 14.5495 16.0719 14.5301 16.6488 14.5301C17.0854 14.5301 17.4817 14.5428 17.8601 14.5592C19.6521 14.6369 20.7783 14.8735 21.1582 15.078C21.197 15.0974 21.2411 15.1183 21.265 15.1385V15.2773ZM11.1332 14.7226V15.1383V15.2242H7.12677C7.61787 10.4021 11.7004 6.62735 16.6487 6.62735C21.5977 6.62735 25.681 10.4021 26.1713 15.2242H22.1649V15.1383V14.7226L21.8492 14.4539C21.7515 14.3703 21.6567 14.3217 21.5992 14.2919C20.985 13.9619 19.6415 13.7343 17.8996 13.6589C17.5085 13.6425 17.1002 13.6298 16.6487 13.6298C16.1121 13.6298 15.5814 13.6462 15.0284 13.6775C13.6566 13.7582 12.5251 13.9418 11.9243 14.1851C11.7138 14.2687 11.5675 14.3516 11.4496 14.4539L11.1332 14.7226ZM26.3123 20.2403C26.428 19.9649 26.5295 19.682 26.622 19.3946L25.7705 19.0975L22.0059 17.7808C22.0417 17.5964 22.0731 17.4023 22.0962 17.1888L22.1029 17.1321C22.1089 17.0843 22.1141 17.0358 22.1193 16.9866C22.1298 16.8567 22.1387 16.7178 22.1447 16.5693C22.1514 16.4342 22.1551 16.2827 22.1574 16.1244H26.2175H27.1184C27.1154 15.8214 27.0997 15.5213 27.0736 15.2242C26.5795 9.89829 22.1029 5.72714 16.6486 5.72714C11.1943 5.72714 6.71843 9.89829 6.22584 15.2242C6.19822 15.5213 6.18255 15.8214 6.17957 16.1244H7.08115H11.1413C11.1443 16.2797 11.148 16.4334 11.1547 16.5693C11.1599 16.6999 11.1674 16.8268 11.1764 16.944L11.192 17.1008L11.1965 17.147C11.2204 17.3799 11.2525 17.5837 11.2891 17.7748L7.52523 19.0908L6.67365 19.3879C6.7662 19.6745 6.86844 19.9574 6.98413 20.2344C8.56415 24.0166 12.2951 26.6732 16.6486 26.6732C21.0005 26.6732 24.7308 24.0188 26.3123 20.2403Z" fill="black"/>
</svg>
