<svg xmlns="http://www.w3.org/2000/svg" xmlns:xlink="http://www.w3.org/1999/xlink" width="44.625px" height="38.25px"
	 viewBox="0 0 44.625 38.25">
<path d="M38.553,2.809H6.07v4.605h32.484V2.809z M38.553,17.874H6.07v17.363h1.838V21.532H36.43v13.705h2.124V17.874z
	 M35.023,22.938h-7.631v12.299h7.631V22.938z M25.986,22.938h-7.631v1.313h7.631V22.938z M25.986,25.656h-7.631v9.581h7.631V25.656z
	 M16.948,22.938H9.316v12.299h7.632V22.938z M43.218,18.576h-1.85v16.865c0.778,0,1.407,0.628,1.407,1.405
	c0,0.775-0.629,1.404-1.407,1.404H3.256c-0.776,0-1.408-0.629-1.408-1.404c0-0.776,0.632-1.405,1.408-1.405V18.576H1.408
	c-0.443,0-0.858-0.208-1.124-0.56c-0.266-0.353-0.351-0.809-0.228-1.232L2.669,7.73c0.096-0.332,0.312-0.598,0.587-0.779V0h38.112
	v6.951c0.275,0.181,0.492,0.447,0.587,0.779l2.615,9.054c0.122,0.423,0.038,0.879-0.228,1.232
	C44.076,18.368,43.658,18.576,43.218,18.576z M25.142,31.439h-1.407v-3.129h1.407V31.439z"/>
</svg>
