<svg width="24" height="24" viewBox="0 0 24 24" fill="none" xmlns="http://www.w3.org/2000/svg">
<path fill-rule="evenodd" clip-rule="evenodd" d="M12.5702 9.3424C12.5371 16.2615 12.5215 16.7122 12.2982 17.1618C11.7342 18.2974 10.7156 18.9209 9.4124 18.9282C7.56612 18.9384 6.36113 17.7322 6.35488 15.8673C6.35251 15.1644 6.40909 14.9549 6.75809 14.3729C7.28046 13.5016 8.09087 12.9795 9.04317 12.9006L9.72468 12.844V11.3606V9.87714H9.06041C7.64981 9.87714 6.14066 10.553 5.04059 11.6775C3.19068 13.5682 2.76462 16.2255 3.93002 18.603C5.20272 21.1994 8.10735 22.531 10.9069 21.8018C13.0935 21.2324 14.8702 19.3635 15.3325 17.147C15.4178 16.7375 15.4705 14.8348 15.4705 12.1594V7.83363L15.9046 8.34076C16.7855 9.37001 18.4325 10.127 19.791 10.127H20.4669V8.45792V6.78889L19.7877 6.65249C18.8333 6.46088 17.7278 5.86931 17.0417 5.18318C16.3857 4.52716 15.747 3.36538 15.6144 2.58707L15.5265 2.07032L14.0659 2.03522L12.6052 2L12.5702 9.3424Z" fill="black"/>
</svg>
