<svg xmlns="http://www.w3.org/2000/svg" xmlns:xlink="http://www.w3.org/1999/xlink" width="40px" height="40px" viewBox="0 0 40 40">
  <title>Tire Icon</title>
<desc>Tire Icon</desc>
<metadata><?xpacket begin="﻿" id="W5M0MpCehiHzreSzNTczkc9d"?>
<x:xmpmeta xmlns:x="adobe:ns:meta/" x:xmptk="Adobe XMP Core 8.0-c001 1.000000, 0000/00/00-00:00:00        ">
   <rdf:RDF xmlns:rdf="http://www.w3.org/1999/02/22-rdf-syntax-ns#">
      <rdf:Description rdf:about=""
            xmlns:ns1="http://www.bsam.blog"
            xmlns:dc="http://purl.org/dc/elements/1.1/"
            xmlns:tiff="http://ns.adobe.com/tiff/1.0/"
            xmlns:Iptc4xmpCore="http://iptc.org/std/Iptc4xmpCore/1.0/xmlns/">
         <ns1:internalUseOnly>no</ns1:internalUseOnly>
         <ns1:olympicAsset>no</ns1:olympicAsset>
         <ns1:showsBrandLogo>no</ns1:showsBrandLogo>
         <ns1:transparentBackground>no</ns1:transparentBackground>
         <ns1:mobilityRelated>no</ns1:mobilityRelated>
         <ns1:assetOwner>enterprise:business-unit/bsro</ns1:assetOwner>
         <ns1:retouched>no</ns1:retouched>
         <ns1:keyPromo>no</ns1:keyPromo>
         <ns1:subDigitalAssetType>enterprise:digital-asset-type/image/icon</ns1:subDigitalAssetType>
         <ns1:digitalAssetType>image</ns1:digitalAssetType>
         <ns1:rightsLimitedUnlimited>unlimited</ns1:rightsLimitedUnlimited>
         <ns1:usageCountry>
            <rdf:Bag>
               <rdf:li>enterprise:region-country/global</rdf:li>
            </rdf:Bag>
         </ns1:usageCountry>
         <dc:format>image/svg+xml</dc:format>
         <dc:modified>2022-06-03T18:56:34.701Z</dc:modified>
         <dc:title>
            <rdf:Alt>
               <rdf:li xml:lang="x-default">Tire Icon</rdf:li>
            </rdf:Alt>
         </dc:title>
         <dc:description>
            <rdf:Alt>
               <rdf:li xml:lang="x-default">Tire Icon</rdf:li>
            </rdf:Alt>
         </dc:description>
         <tiff:ImageLength>40</tiff:ImageLength>
         <tiff:ImageWidth>40</tiff:ImageWidth>
         <Iptc4xmpCore:CreatorContactInfo>
            <rdf:Description/>
         </Iptc4xmpCore:CreatorContactInfo>
      </rdf:Description>
   </rdf:RDF>
</x:xmpmeta>
                                                                                                    
                                                                                                    
                                                                                                    
                                                                                                    
                                                                                                    
                                                                                                    
                                                                                                    
                                                                                                    
                                                                                                    
                                                                                                    
                                                                                                    
                                                                                                    
                                                                                                    
                                                                                                    
                                                                                                    
                                                                                                    
                                                                                                    
                                                                                                    
                                                                               
<?xpacket end="w"?></metadata>
<path d="M0,20A20,20,0,1,0,20,0,20,20,0,0,0,0,20Zm5.541,0A14.459,14.459,0,1,1,20,34.457,14.474,14.474,0,0,1,5.541,20Zm1.291,0A13.169,13.169,0,1,0,20,6.83,13.183,13.183,0,0,0,6.832,20Zm17.157-9.763C23.123,15.017,20,16.406,20,16.406s-3.12-1.389-3.989-6.171a10.481,10.481,0,0,1,7.979,0ZM9.446,20A10.489,10.489,0,0,1,12,13.141c4.259,2.328,4.6,5.727,4.6,5.727s-2.3,2.521-7.108,1.841C9.467,20.474,9.446,20.239,9.446,20ZM11.014,25.5c3.526-3.333,6.86-2.608,6.86-2.608s1.694,2.964-.432,7.328A10.564,10.564,0,0,1,11.014,25.5ZM18,20a2,2,0,1,1,2,2A2,2,0,0,1,18,20Zm4.1,2.914s3.339-.7,6.839,2.663a10.573,10.573,0,0,1-6.465,4.671C20.387,25.864,22.1,22.912,22.1,22.912ZM28.061,13.2A10.5,10.5,0,0,1,30.554,20c0,.269-.02.533-.041.8-4.813.641-7.094-1.9-7.094-1.9S23.781,15.5,28.061,13.2Z"/>
</svg>
