<svg width="33" height="33" viewBox="0 0 33 33" fill="none" xmlns="http://www.w3.org/2000/svg">
<path fill-rule="evenodd" clip-rule="evenodd" d="M14.3999 4.31271L16.3823 2.3503C16.5542 2.18011 16.8314 2.18011 17.0026 2.3503L18.9857 4.31271C19.1561 4.48218 19.1561 4.75655 18.9857 4.92601C18.9005 5.01038 18.7878 5.05293 18.6759 5.05293C18.564 5.05293 18.4514 5.01038 18.3661 4.92601L16.6928 3.26952L15.0194 4.92601C14.8482 5.09548 14.5711 5.09548 14.3999 4.92601C14.2294 4.75655 14.2294 4.48218 14.3999 4.31271ZM5.73014 16.8869L7.4035 18.5434C7.57469 18.7129 7.57469 18.9881 7.4035 19.1562C7.31828 19.2413 7.20637 19.2839 7.09447 19.2839C6.98183 19.2839 6.86992 19.2413 6.78396 19.1562L4.80008 17.193C4.71856 17.1108 4.67188 17.0007 4.67188 16.8869C4.67188 16.771 4.71856 16.6609 4.80008 16.5794L6.78396 14.6147C6.95515 14.4452 7.23231 14.4452 7.4035 14.6147C7.57469 14.7843 7.57469 15.0588 7.4035 15.2283L5.73014 16.8869ZM28.5435 17.193L26.5596 19.1562C26.4744 19.2413 26.3625 19.2839 26.2499 19.2839C26.138 19.2839 26.0261 19.2413 25.9394 19.1562C25.7689 18.9881 25.7689 18.7129 25.9394 18.5434L27.6135 16.8869L25.9394 15.2283C25.7689 15.0588 25.7689 14.7843 25.9394 14.6147C26.1105 14.4452 26.3885 14.4452 26.5596 14.6147L28.5435 16.5794C28.625 16.6609 28.6717 16.771 28.6717 16.8869C28.6717 17.0007 28.625 17.1108 28.5435 17.193ZM21.8369 26.5305C21.8369 27.4281 21.2211 28.176 20.3896 28.4071L20.9676 27.6277C21.081 27.4758 21.081 27.2674 20.9676 27.114L19.6855 25.3893L20.9676 23.6617C21.081 23.5098 21.081 23.3013 20.9676 23.1487L19.6863 21.421L20.9676 19.6978C21.081 19.5452 21.081 19.3367 20.9676 19.1833L19.6855 17.4579L20.9676 15.7303C21.081 15.5776 21.081 15.3699 20.9676 15.2166L19.6855 13.4875L20.9676 11.7584C21.081 11.6057 21.081 11.398 20.9676 11.2454L19.6855 9.51259L20.4444 8.48805C21.247 8.73612 21.8369 9.47076 21.8369 10.3471V26.5305ZM11.4756 10.3472C11.4756 9.36671 12.2093 8.56088 13.1608 8.41997L12.5442 9.25076C12.4316 9.40414 12.4316 9.61257 12.5442 9.76523L13.8263 11.4899L12.5442 13.2168C12.4316 13.3702 12.4316 13.5772 12.5442 13.7306L13.8256 15.4574L12.5442 17.1814C12.4316 17.3341 12.4316 17.5418 12.5442 17.6951L13.8263 19.4213L12.5442 21.1497C12.4316 21.3023 12.4316 21.51 12.5442 21.6627L13.8263 23.3918L12.5442 25.1201C12.4316 25.2735 12.4316 25.4812 12.5442 25.6346L13.8263 27.3659L13.0311 28.4403C12.1433 28.2495 11.4756 27.4679 11.4756 26.5307V10.3472ZM14.0827 28.4871L14.723 27.6219C14.8364 27.4699 14.8364 27.2622 14.723 27.1089L13.4409 25.3776L14.723 23.6485C14.8364 23.4951 14.8364 23.2881 14.723 23.134L13.4409 21.4064L14.723 19.678C14.8364 19.5246 14.8364 19.3169 14.723 19.1643L13.4417 17.4381L14.7222 15.7149C14.8364 15.5622 14.8364 15.3531 14.723 15.2019L13.4409 13.4743L14.723 11.7474C14.8364 11.594 14.8364 11.3863 14.7222 11.2329L13.4409 9.50747L14.2694 8.39192H16.3045L15.6664 9.2506C15.5537 9.40398 15.5537 9.61241 15.6679 9.76507L16.9485 11.4898L15.6664 13.2167C15.5537 13.37 15.5537 13.577 15.6664 13.7304L16.947 15.4573L15.6679 17.1812C15.5537 17.3339 15.5537 17.5416 15.6664 17.695L16.9485 19.4211L15.6664 21.1495C15.5537 21.3022 15.5537 21.5099 15.6664 21.6625L16.9485 23.3916L15.6664 25.12C15.5537 25.2733 15.5537 25.481 15.6664 25.6344L16.9485 27.3657L16.1199 28.4871H14.0827ZM20.0715 11.5015L18.7887 13.2313C18.6753 13.384 18.6753 13.5917 18.7887 13.7443L20.0715 15.4742L18.7887 17.2011C18.6753 17.3544 18.6753 17.5629 18.7887 17.7148L20.07 19.4402L18.7894 21.1634C18.6753 21.3168 18.6753 21.5245 18.7887 21.6779L20.0715 23.4055L18.7887 25.1324C18.6753 25.2851 18.6753 25.4935 18.7887 25.6454L20.0715 27.3709L19.2422 28.4871H17.205L17.8453 27.6219C17.9587 27.4699 17.9587 27.2622 17.8453 27.1089L16.564 25.3776L17.8453 23.6485C17.9587 23.4951 17.9587 23.2881 17.8453 23.134L16.564 21.4064L17.8453 19.678C17.9587 19.5246 17.9587 19.3169 17.8453 19.1643L16.564 17.4381L17.8446 15.7149C17.9587 15.5622 17.9587 15.3531 17.8453 15.2019L16.564 13.4743L17.8453 11.7474C17.9587 11.594 17.9587 11.3863 17.8446 11.2329L16.564 9.50747L17.391 8.39192H19.429L18.7887 9.25647C18.6753 9.40985 18.6753 9.61682 18.7887 9.76947L20.0715 11.5015ZM13.4503 6.65602C11.3953 6.65602 9.72412 8.31172 9.72412 10.3469V26.5303C9.72412 28.5662 11.3953 30.2226 13.4503 30.2226H19.8621C21.9164 30.2226 23.5898 28.5662 23.5898 26.5303V10.3469C23.5898 8.31172 21.9164 6.65602 19.8621 6.65602H13.4503Z" fill="black"/>
</svg>
