<svg width="33" height="33" viewBox="0 0 33 33" fill="none" xmlns="http://www.w3.org/2000/svg">
<path fill-rule="evenodd" clip-rule="evenodd" d="M22.3148 11.4647C23.4001 12.7511 24.0596 14.4097 24.0596 16.2213C24.0596 16.4094 24.0458 16.5942 24.0311 16.7782C20.6619 17.2269 19.0652 15.4486 19.0652 15.4486C19.0652 15.4486 19.3185 13.0719 22.3148 11.4647ZM18.1444 18.2611C18.1444 18.2611 20.482 17.7725 22.932 20.1256C21.9216 21.7402 20.3078 22.9355 18.4066 23.3947C16.9427 20.3275 18.1444 18.2611 18.1444 18.2611ZM15.2735 16.2214C15.2735 15.4495 15.8996 14.8234 16.6715 14.8234C17.445 14.8234 18.0711 15.4495 18.0711 16.2214C18.0711 16.9941 17.445 17.6202 16.6715 17.6202C15.8996 17.6202 15.2735 16.9941 15.2735 16.2214ZM10.3815 20.076C12.8494 17.7425 15.1838 18.2505 15.1838 18.2505C15.1838 18.2505 16.3693 20.3252 14.8809 23.3801C12.9846 22.9054 11.3798 21.6996 10.3815 20.076ZM9.28401 16.2214C9.28401 14.3894 9.95818 12.7138 11.068 11.4216C14.0496 13.0509 14.2849 15.43 14.2849 15.43C14.2849 15.43 12.6744 17.1944 9.30925 16.7189C9.29866 16.5544 9.28401 16.39 9.28401 16.2214ZM19.464 9.38683C18.8574 12.7341 16.6713 13.7062 16.6713 13.7062C16.6713 13.7062 14.4867 12.7341 13.8785 9.38683C14.7416 9.03346 15.6836 8.83479 16.6713 8.83479C17.6597 8.83479 18.6018 9.03346 19.464 9.38683ZM7.45465 16.2214C7.45465 21.3045 11.5909 25.4391 16.6715 25.4391C21.7555 25.4391 25.8901 21.3045 25.8901 16.2214C25.8901 11.1399 21.7555 7.00369 16.6715 7.00369C11.5909 7.00369 7.45465 11.1399 7.45465 16.2214ZM6.55062 16.2215C6.55062 10.6417 11.0915 6.10162 16.6713 6.10162C22.2527 6.10162 26.7928 10.6417 26.7928 16.2215C26.7928 21.8029 22.2527 26.343 16.6713 26.343C11.0915 26.343 6.55062 21.8029 6.55062 16.2215ZM2.67188 16.2214C2.67188 23.9532 8.94051 30.221 16.6715 30.221C24.4049 30.221 30.6719 23.9532 30.6719 16.2214C30.6719 8.49048 24.4049 2.22266 16.6715 2.22266C8.94051 2.22266 2.67188 8.49048 2.67188 16.2214Z" fill="black"/>
</svg>
