<svg width="34" height="34" viewBox="0 0 34 34" fill="none" xmlns="http://www.w3.org/2000/svg">
<path d="M17 24.5343C17.9882 24.5343 18.7893 23.7332 18.7893 22.7451C18.7893 21.7569 17.9882 20.9558 17 20.9558C16.0119 20.9558 15.2108 21.7569 15.2108 22.7451C15.2108 23.7332 16.0119 24.5343 17 24.5343Z" fill="black"/>
<path d="M17 6.02364C16.0133 6.02364 15.2108 6.82615 15.2108 7.81288V16.8611C15.2108 17.8478 16.0133 18.6503 17 18.6503C17.9868 18.6503 18.7893 17.8478 18.7893 16.8611V7.81288C18.7893 6.82615 17.9868 6.02364 17 6.02364Z" fill="black"/>
<path d="M31.4175 16.2364C31.1439 13.6123 30.1596 11.1115 28.5704 9.00596C28.1861 8.49599 27.9529 7.89114 27.8959 7.25625L27.6856 4.90803C27.6485 4.48819 27.3022 4.17114 26.88 4.17114H25.0425C24.663 4.17114 24.3546 4.4795 24.3546 4.85901V5.95484C24.3546 6.77712 24.6124 7.56065 25.0994 8.22163L28.1142 12.314C28.3363 12.6153 28.5063 12.9489 28.6186 13.3047C30.1153 18.0209 28.6415 23.1159 24.8654 26.3045H9.13387C5.35773 23.1151 3.88396 18.0209 5.37987 13.3047C5.49293 12.9481 5.66292 12.6145 5.88509 12.314L8.89983 8.22163C9.38687 7.56065 9.64462 6.77712 9.64462 5.95484V4.85901C9.64462 4.4795 9.33627 4.17114 8.95676 4.17114H7.1193C6.69709 4.17114 6.35079 4.4874 6.31363 4.90803L6.1041 7.25625C6.04718 7.89193 5.81394 8.49678 5.42968 9.00596C3.83969 11.1115 2.85533 13.6123 2.58098 16.2467C2.40545 19.6528 3.44515 23.021 5.51033 25.7345L6.62514 29.3217C6.68839 29.5233 6.87182 29.6672 7.08293 29.6775L9.97116 29.8285V28.3294H11.626V29.8166H14.1055V28.3294H15.7603V29.8166H18.2398V28.3294H19.8946V29.8166H22.3741V28.3294H24.0289V29.8285L26.9171 29.6775C27.1282 29.6664 27.3124 29.5233 27.3749 29.3209L28.4897 25.7337C30.5541 23.021 31.5946 19.6536 31.4175 16.2364Z" fill="black"/>
</svg>
