<svg width="33" height="33" viewBox="0 0 33 33" fill="none" xmlns="http://www.w3.org/2000/svg">
<path fill-rule="evenodd" clip-rule="evenodd" d="M23.9159 21.8803C23.9159 22.8924 24.7584 23.7172 25.7946 23.7172C26.8301 23.7172 27.6719 22.8924 27.6719 21.8803C27.6719 20.8675 26.8301 20.0427 25.7946 20.0427C24.7584 20.0427 23.9159 20.8675 23.9159 21.8803ZM25.4141 26.1453H25.2827V27.6047H25.4072C25.9399 27.6047 26.3143 27.452 26.3143 26.8588C26.3143 26.2611 25.9261 26.1453 25.4141 26.1453ZM27.6704 30.2227H26.4996L25.2958 28.2685H25.2827V30.2227H24.3164V25.373H25.624C26.6041 25.373 27.2822 25.7979 27.2822 26.8332C27.2822 27.452 26.9332 28.0678 26.269 28.1768L27.6704 30.2227ZM8.54986 23.7175C9.58533 23.7175 10.4271 22.8926 10.4271 21.8806C10.4271 21.2032 10.0481 20.6174 9.48847 20.2994V17.3332H16.2617V20.2994C15.7036 20.6174 15.3231 21.2032 15.3231 21.8806C15.3231 22.8926 16.1656 23.7175 17.2011 23.7175C18.2373 23.7175 19.0798 22.8926 19.0798 21.8806C19.0798 21.2032 18.6985 20.6174 18.1397 20.2994V17.3332H24.8545V18.043C24.8545 18.5505 25.275 18.9618 25.7946 18.9618C26.312 18.9618 26.7332 18.5505 26.7332 18.043V12.4573C27.2921 12.1377 27.6718 11.5528 27.6718 10.8753C27.6718 9.8633 26.8301 9.03924 25.7946 9.03924C24.7584 9.03924 23.9159 9.8633 23.9159 10.8753C23.9159 11.5528 24.2964 12.1377 24.8545 12.4573V15.4956H18.1397V12.4573C18.6985 12.1377 19.0798 11.5528 19.0798 10.8753C19.0798 9.8633 18.2373 9.03924 17.2011 9.03924C16.1656 9.03924 15.3231 9.8633 15.3231 10.8753C15.3231 11.5528 15.7036 12.1377 16.2617 12.4573V15.4956H9.48847V12.4573C10.0481 12.1377 10.4271 11.5528 10.4271 10.8753C10.4271 9.8633 9.58533 9.03924 8.54986 9.03924C7.51363 9.03924 6.67188 9.8633 6.67188 10.8753C6.67188 11.5528 7.05162 12.1377 7.60972 12.4573V20.2994C7.05162 20.6174 6.67188 21.2032 6.67188 21.8806C6.67188 22.8926 7.51363 23.7175 8.54986 23.7175ZM16.2447 28.559H17.3032V26.6289H17.2902L16.2447 28.559ZM15.0423 28.9183L17.2696 25.2305H18.1581V28.5819H18.688V29.3464H18.1581V30.2079H17.2432V29.3464H15.0423V28.9183ZM24.3351 5.8151L24.0453 6.62563C24.4335 7.05796 24.9324 7.26849 25.5182 7.26849C26.5775 7.26849 27.32 6.56924 27.32 5.52638C27.32 4.61961 26.6889 3.83991 25.7226 3.83991L25.4728 3.85344L25.6442 3.11359H27.1163V2.29028H24.9593L24.4266 4.83615H24.578C24.7817 4.65119 25.0908 4.52187 25.3736 4.52187C25.9194 4.52187 26.3407 4.96021 26.3407 5.48728C26.3407 5.98954 25.9925 6.44518 25.4528 6.44518C25 6.44518 24.5911 6.176 24.3351 5.8151ZM8.90823 7.12624V2.27661H7.29007V3.09992H7.94117V7.12624H8.90823ZM16.463 5.80011H15.4882C15.5413 6.66778 16.2254 7.32868 17.1333 7.32868C18.0811 7.32868 18.7838 6.73845 18.7838 5.78582C18.7838 5.34221 18.5993 4.79634 18.1472 4.60236C18.4816 4.38431 18.6192 3.96552 18.6192 3.59258C18.6192 2.75724 18.0465 2.22266 17.1925 2.22266C16.3046 2.22266 15.7588 2.7813 15.6727 3.61815H16.5937C16.6067 3.32191 16.7912 3.00687 17.1333 3.00687C17.4954 3.00687 17.6983 3.30386 17.6983 3.62491C17.6983 4.03018 17.4815 4.29334 17.0672 4.29334H16.9626V4.96928L17.1402 4.9565C17.5738 4.92341 17.8367 5.34221 17.8367 5.72943C17.8367 6.10838 17.6068 6.50537 17.1725 6.50537C16.7443 6.50537 16.4822 6.18507 16.463 5.80011ZM8.00179 28.653C8.35079 28.2267 9.08031 27.3861 9.08031 26.8394C9.08031 26.4913 8.85046 26.0537 8.44304 26.0537C8.00871 26.0537 7.81115 26.5169 7.83191 26.883H6.80566C6.87023 25.9515 7.4168 25.2304 8.43535 25.2304C9.34321 25.2304 10.0474 25.9056 10.0474 26.7943C10.0474 27.5086 9.63994 28.0417 9.18639 28.5552L8.45611 29.3861H10.0797V30.2094H6.73955L8.00179 28.653Z" fill="black"/>
</svg>
