<svg width="33" height="33" viewBox="0 0 33 33" fill="none" xmlns="http://www.w3.org/2000/svg">
<path fill-rule="evenodd" clip-rule="evenodd" d="M15.4593 19.6806L7.80567 27.2216C7.71936 27.3067 7.607 27.3493 7.49382 27.3493C7.37821 27.3493 7.26421 27.3051 7.17628 27.215C7.00366 27.039 7.00692 26.7541 7.18279 26.5822L14.8364 19.0412C15.0131 18.8676 15.2932 18.8709 15.4667 19.0478C15.5122 19.0961 15.5448 19.1501 15.5652 19.2099C15.6222 19.3695 15.588 19.5537 15.4593 19.6806ZM6.41525 25.824C6.32894 25.91 6.21495 25.9517 6.1034 25.9517C5.9886 25.9517 5.87379 25.9075 5.78586 25.8175C5.61324 25.6415 5.61569 25.3582 5.79319 25.1846L13.446 17.6429C13.6219 17.4693 13.9036 17.4734 14.077 17.6494C14.248 17.8271 14.2448 18.1111 14.0697 18.2823L6.41525 25.824ZM17.2383 20.6882L18.2512 19.6853L18.576 20.0087L18.7804 20.2117C18.9547 20.3836 19.2347 20.3828 19.4082 20.2085L20.8322 18.7774C20.9169 18.6939 20.9633 18.5784 20.9625 18.4589C20.9617 18.3402 20.9137 18.2264 20.829 18.1421L18.712 16.0471L19.5669 15.1858L28.38 23.9769C29.9303 25.5078 27.631 28.4305 25.7029 28.4305C25.2689 28.4305 24.8545 28.2832 24.5052 27.9393L17.2383 20.6882ZM8.61281 27.9606C8.24234 28.3396 7.75543 28.4518 7.17083 28.3011C6.14328 28.0334 5.07666 26.979 4.79168 25.9499C4.63046 25.3629 4.7355 24.8733 5.09945 24.4991L14.4206 15.2832C14.5061 15.198 14.555 15.0842 14.555 14.9647C14.555 14.8435 14.5069 14.7289 14.4214 14.6454L13.7888 14.0142L14.5818 13.2176L16.1769 14.7944L18.0814 16.6798L19.884 18.4638L19.091 19.2603L18.5642 18.738C18.3908 18.5669 18.1123 18.5669 17.9397 18.7372L8.61281 27.9606ZM5.99826 12.9893C4.55303 11.5591 4.13207 9.49517 4.69958 7.67522L7.52329 10.4653L9.89593 9.48125L10.8339 7.07922L8.0102 4.2883C8.55491 4.10655 9.12161 4.01486 9.68912 4.01486C10.9992 4.01486 12.3076 4.50607 13.3189 5.50242C14.6485 6.81723 15.1159 8.66993 14.7438 10.3761L17.6685 13.2931L16.8062 14.1609L14.892 12.2664C14.7177 12.0945 14.4385 12.0945 14.2642 12.2689L12.841 13.7C12.7587 13.7835 12.7107 13.8981 12.7107 14.0176C12.7107 14.1363 12.7587 14.2501 12.8426 14.3344L13.4744 14.9632L12.4803 15.9448L10.8697 14.3385C10.4651 14.4343 10.0523 14.4834 9.64026 14.4834C8.32449 14.4834 7.01115 13.9898 5.99826 12.9893ZM24.2502 6.64366L26.9281 4.64115L26.9485 4.62641L26.9697 4.64933L28.1576 5.84298L28.1796 5.86591L28.1658 5.88473L26.1742 8.57659L24.9146 8.6208L24.2144 7.91754L24.2502 6.64366ZM29.6297 22.6989L20.8271 13.9185L24.29 10.4366L27.0934 10.3375L30.5277 5.69226L27.1194 2.26523L22.4938 5.72255L22.4141 8.52329L18.93 12.0265L16.6331 9.73659C16.7829 7.68741 16.0444 5.68408 14.5674 4.22435C13.2606 2.9341 11.5288 2.22266 9.68945 2.22266C8.92652 2.22266 8.17174 2.34546 7.4479 2.58943C6.85841 2.78673 6.41384 3.27631 6.27461 3.88378C6.13538 4.49206 6.31858 5.129 6.76152 5.567L8.74414 7.52695L8.51453 8.11558L7.93318 8.3571L5.94893 6.39715C5.61184 6.06313 5.16158 5.88302 4.69991 5.88302C4.5558 5.88302 4.41168 5.90021 4.26756 5.93623C3.66586 6.08769 3.18547 6.54288 3.00064 7.13807C2.20596 9.68337 2.87606 12.4153 4.74958 14.268C6.06129 15.5616 7.7972 16.2746 9.64059 16.2746C9.84496 16.2746 10.051 16.2656 10.2537 16.2484L10.59 16.5825L3.83359 23.2392C2.43964 24.6654 2.69938 26.9577 4.45239 28.6901C5.17542 29.4056 6.04745 29.8968 6.90726 30.0777C7.16048 30.1318 7.41289 30.158 7.65634 30.158C8.5072 30.158 9.27664 29.8387 9.86532 29.2345L16.6119 22.5884L23.2519 29.2124C23.9236 29.8747 24.768 30.2227 25.7027 30.2227C27.814 30.2227 29.6704 28.4641 30.3429 26.8095C30.9634 25.2884 30.6955 23.7526 29.6297 22.6989Z" fill="black"/>
</svg>
