<svg width="33" height="33" viewBox="0 0 33 33" fill="none" xmlns="http://www.w3.org/2000/svg">
<path fill-rule="evenodd" clip-rule="evenodd" d="M11.3403 16.0262C11.5138 15.6125 11.5138 15.1858 11.5138 14.8628C11.5138 14.8579 11.5121 14.8555 11.5121 14.8522H18.0307C18.0307 15.1416 18.0332 15.5684 18.1577 16.0262H11.3403ZM7.63321 13.1763C10.3543 13.1763 10.6116 13.9195 10.6116 14.8376C10.6116 15.6388 10.6311 16.3051 8.66808 16.4637C8.38066 16.4866 8.05009 16.4997 7.66904 16.4997C7.21878 16.4997 6.91019 16.3174 6.71315 16.0222C6.51286 15.7197 6.42818 15.302 6.42818 14.8376C6.42818 13.9195 6.33617 13.1763 7.63321 13.1763ZM23.9826 13.9546C24.2627 13.8459 24.5582 13.7837 24.8619 13.7494C24.914 13.7437 24.9678 13.7371 25.0215 13.7338C25.0297 13.733 25.0378 13.7322 25.046 13.7314C25.1184 13.7265 25.1868 13.7101 25.2593 13.7101C25.3399 13.7101 25.4099 13.7371 25.4742 13.7731C25.6126 13.8508 25.7095 13.9922 25.7095 14.1622C25.7095 14.307 25.6387 14.4296 25.5345 14.513C25.4579 14.5727 25.3651 14.6152 25.2593 14.6152C25.208 14.6152 25.1616 14.6266 25.1111 14.6291C25.1046 14.6299 25.0997 14.6307 25.094 14.6307C25.0337 14.6348 24.9767 14.6405 24.9173 14.6479C24.5973 14.6896 24.2928 14.7901 24.0111 14.9438C23.7896 15.0632 23.5796 15.2054 23.3964 15.3894C23.0837 15.7033 22.872 16.086 22.7482 16.4988C22.6741 16.7449 22.6237 16.9975 22.6237 17.2616C22.6237 17.3115 22.6106 17.3556 22.5952 17.4014C22.5365 17.5813 22.3729 17.7129 22.1734 17.7129C21.9625 17.7129 21.794 17.5649 21.7451 17.3679C21.7362 17.3335 21.7231 17.2992 21.7231 17.2616C21.7231 16.9893 21.7606 16.7253 21.8209 16.4669C21.9666 15.8235 22.2817 15.2292 22.7605 14.7509C23.1122 14.3961 23.5299 14.132 23.9826 13.9546ZM4.61382 16.2726L4.85727 13.7668C4.85727 12.5584 5.59657 11.1874 6.64446 10.7557L23.1714 10.7344C23.4539 10.8432 23.7136 11.0206 23.9465 11.243C23.7079 11.2822 23.4751 11.3321 23.2471 11.4007C22.5656 11.6043 21.9387 11.933 21.3866 12.3565C20.5537 12.9966 19.9007 13.8567 19.5115 14.8525C19.3649 15.2269 19.2591 15.6193 19.1923 16.0265C19.185 16.0698 19.1785 16.1139 19.1711 16.1581C19.1353 16.4222 19.1109 16.6887 19.1109 16.9626C19.1109 17.1367 19.1207 17.3076 19.1353 17.4776C19.1483 17.6191 19.1695 17.7581 19.1923 17.897H5.22448C4.83772 17.897 4.52344 17.5815 4.52344 17.1939L4.61382 16.2726ZM8.12315 6.31953C8.12315 6.31953 8.41709 5.03188 9.88023 5.03188H19.9415C20.833 5.03188 21.4274 5.51178 21.6977 6.31953L22.8702 9.83092L6.9458 9.85055L8.12315 6.31953ZM24.891 12.9674C24.9008 12.9674 24.9089 12.9698 24.9163 12.9698C24.9415 12.9698 24.9643 12.9764 24.9879 12.9764C25.1247 12.9805 25.2542 13.0009 25.3877 13.0181C25.4544 13.0254 25.5228 13.0254 25.5872 13.0377C25.6849 13.0549 25.7769 13.0802 25.8713 13.1039C26.2141 13.1922 26.5341 13.3271 26.8354 13.498C28.0436 14.1839 28.8701 15.4716 28.8701 16.9628C28.8701 19.1653 27.0861 20.9582 24.891 20.9582C23.7568 20.9582 22.7382 20.4734 22.0119 19.7065C21.7587 19.4383 21.5519 19.1309 21.3785 18.8015C21.302 18.6543 21.2311 18.5063 21.1733 18.3493C21.1562 18.3036 21.1448 18.2553 21.1302 18.2095C21.096 18.1065 21.0585 18.0035 21.0325 17.8972C20.9836 17.692 20.9584 17.4803 20.9421 17.2645C20.9339 17.1631 20.9111 17.0658 20.9111 16.9628C20.9111 16.7518 20.9421 16.5499 20.9738 16.3472C21.192 14.9442 22.1284 13.7817 23.4034 13.2625C23.756 13.1195 24.1362 13.0402 24.5303 13.0042C24.65 12.9927 24.7673 12.9674 24.891 12.9674ZM4.20097 10.355C3.49749 11.1685 3.07735 12.2117 3.05618 13.3366L2.72968 17.0328L2.72236 17.1129V17.1938C2.72236 18.1888 3.30615 19.044 4.14397 19.4503V21.2636C4.14397 21.9013 4.661 22.4213 5.29853 22.4213H7.7827C8.42185 22.4213 8.93725 21.9013 8.93725 21.2636V19.7062H19.7989C19.9373 19.9637 20.0993 20.2082 20.2752 20.442L19.3364 21.383C18.7363 21.2244 18.0727 21.3732 17.6013 21.8457L14.3265 25.1339C13.6222 25.8395 13.6222 26.9865 14.3265 27.6912C14.6783 28.0452 15.1399 28.2227 15.6008 28.2227C16.0616 28.2227 16.5225 28.0452 16.875 27.6912L20.1498 24.403C20.6196 23.9321 20.7686 23.265 20.6106 22.6625L21.5649 21.7027C22.5078 22.3706 23.6542 22.7671 24.891 22.7671C28.0786 22.7671 30.6719 20.1632 30.6719 16.9625C30.6719 14.2588 28.8195 11.9885 26.324 11.3451C26.1457 10.9886 25.9242 10.6559 25.6628 10.355H26.5112C26.7596 10.355 26.9631 10.1514 26.9631 9.90126L27.196 8.59808C27.196 8.34872 26.9933 8.14433 26.7449 8.14433H24.207L23.4042 5.74563C22.879 4.16611 21.5836 3.22266 19.9414 3.22266H9.88011C7.94228 3.22266 6.72992 4.54464 6.39365 5.81022L5.61444 8.14433H3.12376C2.87461 8.14433 2.67188 8.34872 2.67188 8.59808L2.90474 9.90126C2.90474 10.1514 3.10748 10.355 3.35581 10.355H4.20097Z" fill="black"/>
</svg>
