<svg width="33" height="33" viewBox="0 0 33 33" fill="none" xmlns="http://www.w3.org/2000/svg">
<path fill-rule="evenodd" clip-rule="evenodd" d="M8.98249 24.5726V25.8742C8.98249 26.1531 9.19664 26.3788 9.46127 26.3788C9.7259 26.3788 9.94004 26.1531 9.94004 25.8742L9.94737 7.27248C9.94737 5.63617 11.2135 4.2753 12.7704 4.24698C12.8029 4.24612 12.9764 4.24698 12.9764 4.24698C15.0519 4.27616 16.7341 6.07206 16.7341 8.28069C16.7341 8.49864 16.9027 8.67625 17.1087 8.67625H22.1619V18.0385L19.5929 15.4617C19.7794 14.0665 19.3242 12.6808 18.3504 11.7129C17.2284 10.5983 15.6178 10.2473 14.1497 10.8008C14.0097 10.8549 13.9046 10.9801 13.8745 11.1337C13.8444 11.2882 13.8916 11.446 13.9999 11.5542L15.827 13.3689L15.3613 14.7006L14.1277 15.2687L12.2997 13.453C12.1914 13.3466 12.0384 13.3072 11.8942 13.3466C11.7509 13.387 11.6377 13.5037 11.5954 13.6538C11.1598 15.2326 11.5848 16.905 12.7077 18.0196C13.6791 18.9858 15.0161 19.383 16.3294 19.1076L22.1619 24.957V25.1775C22.1619 25.5078 22.0992 25.8219 22.0056 26.1196C21.6277 27.326 20.5595 28.2038 19.2909 28.2038H8.98982C6.89069 28.2038 5.12947 26.6473 4.69141 24.5726H8.98249ZM23.8397 4.24685C25.9389 4.24685 27.7001 5.80336 28.139 7.87899L17.4691 7.885C17.3526 6.36195 16.5636 5.04313 15.4204 4.24685H23.8397ZM28.662 25.7991C29.1538 26.2874 28.8354 27.1137 28.3322 27.6766C28.0415 28.0009 27.689 28.2369 27.3641 28.3218C27.0433 28.4025 26.7843 28.3441 26.5759 28.1365L16.752 18.286C16.6722 18.2054 16.5663 18.1625 16.4572 18.1625C16.4214 18.1625 16.3848 18.1668 16.3498 18.1779C15.2505 18.4757 14.1098 18.1736 13.2939 17.3645C12.5896 16.6626 12.2321 15.6827 12.2891 14.6813L13.7466 16.1289C13.8712 16.2533 14.0536 16.2868 14.2099 16.2138L15.871 15.4493C15.9785 15.4004 16.0615 15.3077 16.1006 15.1919L16.7284 13.4003C16.7878 13.2312 16.7447 13.0416 16.6201 12.9172L15.1626 11.4696C16.1087 11.3512 17.0573 11.6679 17.7633 12.3697C18.58 13.1806 18.935 14.3647 18.7143 15.5342C18.685 15.687 18.7331 15.8414 18.8389 15.9487L28.662 25.7991ZM19.2907 30.2227C21.0967 30.2227 22.6543 29.1492 23.4694 27.5867L25.3641 29.4882C25.8445 29.9644 26.4577 30.2149 27.1074 30.2149C27.3314 30.2149 27.561 30.1849 27.7898 30.124C28.4428 29.9532 29.0918 29.5371 29.6153 28.9519C30.9197 27.4915 31.028 25.6003 29.8751 24.4514L24.0768 18.6364V9.89537H29.2009C29.7301 9.89537 30.1584 9.44403 30.1584 8.88802C30.1584 5.21555 27.324 2.22952 23.8399 2.22952C23.8399 2.22952 12.4697 2.21408 12.4038 2.22952C9.96346 2.45433 8.03288 4.6621 8.03288 7.2723V22.5542H3.62862C3.09935 22.5542 2.67188 23.0056 2.67188 23.5624C2.67188 27.2349 5.50546 30.2227 8.98962 30.2227H19.2907Z" fill="black"/>
</svg>
