<?xml version="1.0" encoding="UTF-8"?>
<svg version="1.1" xmlns="http://www.w3.org/2000/svg" width="129" height="63">
<path d="M0 0 C42.57 0 85.14 0 129 0 C129 20.79 129 41.58 129 63 C86.43 63 43.86 63 0 63 C0 42.21 0 21.42 0 0 Z " fill="#F4F3F3" transform="translate(0,0)"/>
<path d="M0 0 C1.89510699 -0.08160748 3.79124504 -0.13946459 5.6875 -0.1875 C6.74324219 -0.22230469 7.79898438 -0.25710937 8.88671875 -0.29296875 C12.41531931 0.03908275 14.23679304 0.80153607 17 3 C17.5625 6.4375 17.5625 6.4375 17 10 C15.1875 12.4375 15.1875 12.4375 13 14 C12.01 14 11.02 14 10 14 C10 14.66 10 15.32 10 16 C11.98 16.33 13.96 16.66 16 17 C16.27714844 15.85660156 16.55429688 14.71320312 16.83984375 13.53515625 C17.20554378 12.04422535 17.57143929 10.55334239 17.9375 9.0625 C18.11990234 8.30775391 18.30230469 7.55300781 18.49023438 6.77539062 C19.88671875 1.11328125 19.88671875 1.11328125 21 0 C22.99958364 -0.04080783 25.00045254 -0.04254356 27 0 C27 1.98 27 3.96 27 6 C28.299375 4.515 28.299375 4.515 29.625 3 C32.12345413 0.46585366 32.66854671 0.03682814 36.375 -0.375 C37.24125 -0.25125 38.1075 -0.1275 39 0 C37.63055898 2.94956528 36.12169591 5.52468811 34 8 C33.34 8 32.68 8 32 8 C32 8.66 32 9.32 32 10 C31.34 10 30.68 10 30 10 C30.34444881 12.47266765 30.34444881 12.47266765 31 15 C33.83269666 16.41634833 36.47466438 16.3463005 39.625 16.5625 C40.81351563 16.64628906 42.00203125 16.73007812 43.2265625 16.81640625 C44.59941406 16.90728516 44.59941406 16.90728516 46 17 C46 16.01 46 15.02 46 14 C44.576875 13.814375 44.576875 13.814375 43.125 13.625 C40 13 40 13 38 11 C37.48348142 7.01542812 37.37240334 4.8741525 39.75 1.5625 C44.71781343 -0.82587184 49.58166829 -0.31110039 55 0 C55 1.65 55 3.3 55 5 C51.7 5.33 48.4 5.66 45 6 C44.67 6.99 44.34 7.98 44 9 C45.3921875 8.938125 45.3921875 8.938125 46.8125 8.875 C50 9 50 9 53 11 C53.5 13.8125 53.5 13.8125 53 17 C50.98843482 19.71660882 49.39218264 21.67683294 45.99853516 22.46459961 C43.66699543 22.63767773 41.39909733 22.63307478 39.0625 22.5625 C38.27681641 22.57345703 37.49113281 22.58441406 36.68164062 22.59570312 C31.21253793 22.5270533 28.25612847 21.43632844 24 18 C23.34 19.32 22.68 20.64 22 22 C19.77191841 22.10853983 17.54230068 22.18583307 15.3125 22.25 C14.07113281 22.29640625 12.82976562 22.3428125 11.55078125 22.390625 C7.46544831 21.94119343 5.90511754 20.82179677 3 18 C2.67 19.32 2.34 20.64 2 22 C-0.31 22 -2.62 22 -5 22 C-4.38955672 14.36945905 -2.20378179 7.29810526 0 0 Z " fill="#EE2729" transform="translate(64,32)"/>
<path d="M0 0 C42.57 0 85.14 0 129 0 C129 20.79 129 41.58 129 63 C86.43 63 43.86 63 0 63 C0 42.21 0 21.42 0 0 Z M2.84339905 4.7460022 C1.10269246 7.81872561 0.37312804 9.35139126 0.36889648 12.80859375 C0.35636337 13.709729 0.34383026 14.61086426 0.33091736 15.53930664 C0.34417557 16.49571045 0.35743378 17.45211426 0.37109375 18.4375 C0.36868179 19.43579834 0.36626984 20.43409668 0.36378479 21.46264648 C0.36476159 23.56726058 0.37811502 25.67190089 0.40307617 27.77636719 C0.43739134 30.98982405 0.42372365 34.20053007 0.40429688 37.4140625 C0.41119566 39.46355332 0.42086834 41.51303707 0.43359375 43.5625 C0.42863388 44.51890381 0.42367401 45.47530762 0.41856384 46.46069336 C0.52039451 52.25516591 1.16259631 55.57391644 5 60 C7.38992875 61.19496438 8.86644989 61.13090577 11.53474426 61.14044189 C12.48948135 61.14615204 13.44421844 61.15186218 14.42788696 61.15774536 C15.47882538 61.15886322 16.52976379 61.15998108 17.61254883 61.16113281 C18.71671646 61.16609772 19.82088409 61.17106262 20.95851135 61.17617798 C24.62469091 61.19082694 28.29082719 61.19760626 31.95703125 61.203125 C34.49810284 61.20887432 37.03917442 61.21463208 39.58024597 61.22039795 C44.23186665 61.22957024 48.88347428 61.2358673 53.53510171 61.2388947 C60.37958995 61.24337375 67.22387832 61.26091344 74.06830579 61.2898953 C79.99711723 61.3141279 85.92587896 61.32183961 91.85474205 61.32357025 C94.37655411 61.32660108 96.89836524 61.33464402 99.42014503 61.34775543 C102.94667379 61.36478137 106.47271457 61.36294381 109.99926758 61.35644531 C111.0441333 61.3656601 112.08899902 61.37487488 113.16552734 61.3843689 C120.09272707 61.39277142 120.09272707 61.39277142 126 58 C127.21460927 55.57078146 127.15281299 53.9619064 127.19287109 51.24658203 C127.21696548 49.76461838 127.21696548 49.76461838 127.24154663 48.25271606 C127.28592377 43.73733151 127.32704959 39.22209441 127.35009766 34.70654297 C127.36667501 32.32232922 127.39398805 29.93816552 127.43212891 27.55419922 C127.48677726 24.12180731 127.50875264 20.69058031 127.5234375 17.2578125 C127.55744156 15.65765793 127.55744156 15.65765793 127.59213257 14.025177 C127.58928253 13.03089691 127.5864325 12.03661682 127.58349609 11.01220703 C127.59158295 10.13887726 127.5996698 9.26554749 127.60800171 8.36575317 C127.13425592 5.84387378 127.13425592 5.84387378 125.15957642 3.72106934 C120.45211375 1.15684281 116.14570714 1.42596485 110.86328125 1.45068359 C109.7391684 1.44046173 108.61505554 1.43023987 107.45687866 1.41970825 C103.74186906 1.39191224 100.02760121 1.39382941 96.3125 1.3984375 C93.73087284 1.39066463 91.14924823 1.38199551 88.56762695 1.37246704 C83.15729393 1.35754236 77.7472486 1.35784915 72.33691406 1.36865234 C66.08758054 1.38073905 59.83914679 1.35608893 53.58996677 1.31351221 C47.570806 1.2740146 41.5521162 1.26793415 35.5328064 1.27498245 C32.97469976 1.27395467 30.41657894 1.26345359 27.85855103 1.24335861 C24.28389841 1.21872107 20.71133712 1.23215326 17.13671875 1.25537109 C16.07786469 1.24008362 15.01901062 1.22479614 13.92807007 1.20904541 C7.69648746 1.23910852 7.69648746 1.23910852 2.84339905 4.7460022 Z " fill="#030505" transform="translate(0,0)"/>
<path d="M0 0 C0.99 0.33 1.98 0.66 3 1 C1.68 7.6 0.36 14.2 -1 21 C-0.01 21.33 0.98 21.66 2 22 C0.68 27.94 -0.64 33.88 -2 40 C-4.31 39.34 -6.62 38.68 -9 38 C-9 37.34 -9 36.68 -9 36 C-7.02 35.34 -5.04 34.68 -3 34 C-3 31.03 -3 28.06 -3 25 C-6.90775329 23.04612336 -8.99687587 22.65237766 -13.25 22.375 C-16.09625 22.189375 -16.09625 22.189375 -19 22 C-19.99 26.62 -20.98 31.24 -22 36 C-22.33 36 -22.66 36 -23 36 C-23.07476562 35.39671875 -23.14953125 34.7934375 -23.2265625 34.171875 C-23.93847417 29.84456876 -24.41244412 27.57356645 -27.625 24.4375 C-31.96443608 22.58922167 -34.3045431 22.47828257 -39 23 C-41.86964517 24.24767181 -43.43761602 25.21266242 -45.25 27.75 C-46.26434758 30.79304274 -46.63319111 33.82098958 -47 37 C-47.495 35.515 -47.495 35.515 -48 34 C-48.66 33.67 -49.32 33.34 -50 33 C-48.35 29.37 -46.7 25.74 -45 22 C-46.98 22 -48.96 22 -51 22 C-51.66 20.68 -52.32 19.36 -53 18 C-51.25 15 -51.25 15 -49 12 C-47.68 12 -46.36 12 -45 12 C-45 14.64 -45 17.28 -45 20 C-43.02 19.67 -41.04 19.34 -39 19 C-38.01 15.535 -38.01 15.535 -37 12 C-35.02 12 -33.04 12 -31 12 C-31.33 14.64 -31.66 17.28 -32 20 C-30.02 19.67 -28.04 19.34 -26 19 C-25.01 15.535 -25.01 15.535 -24 12 C-23.67 12.66 -23.34 13.32 -23 14 C-22.34 14.33 -21.68 14.66 -21 15 C-21.33 16.65 -21.66 18.3 -22 20 C-13.585 19.505 -13.585 19.505 -5 19 C-4.34 17.35 -3.68 15.7 -3 14 C-6.63 14 -10.26 14 -14 14 C-14 13.01 -14 12.02 -14 11 C-10.7 11 -7.4 11 -4 11 C-3.67 9.35 -3.34 7.7 -3 6 C-5.97 6 -8.94 6 -12 6 C-11.67 4.68 -11.34 3.36 -11 2 C-7.37 2 -3.74 2 0 2 C0 1.34 0 0.68 0 0 Z " fill="#F4F2F3" transform="translate(83,10)"/>
<path d="M0 0 C1.98 0 3.96 0 6 0 C6.33 3.3 6.66 6.6 7 10 C8.65 6.7 10.3 3.4 12 0 C13.98 0 15.96 0 18 0 C18.33 3.3 18.66 6.6 19 10 C20.65 6.7 22.3 3.4 24 0 C25.98 0 27.96 0 30 0 C29.42770367 5.19228855 26.9017839 9.3103703 24.4375 13.8125 C24.01275391 14.60076172 23.58800781 15.38902344 23.15039062 16.20117188 C22.10603446 18.1373378 21.0557923 20.07005367 20 22 C17.36 22 14.72 22 12 22 C11.67 20.02 11.34 18.04 11 16 C10.01 17.98 9.02 19.96 8 22 C5.36 22 2.72 22 0 22 C0 14.74 0 7.48 0 0 Z " fill="#F52329" transform="translate(8,32)"/>
<path d="M0 0 C1.98 0 3.96 0 6 0 C6.33 2.97 6.66 5.94 7 9 C8.65 6.03 10.3 3.06 12 0 C13.98 0 15.96 0 18 0 C18.33 3.3 18.66 6.6 19 10 C20.65 6.7 22.3 3.4 24 0 C25.98 0 27.96 0 30 0 C29.37753426 2.8348913 28.50123079 5.23537706 27.1875 7.8203125 C26.83429687 8.52027344 26.48109375 9.22023438 26.1171875 9.94140625 C25.56417969 11.02228516 25.56417969 11.02228516 25 12.125 C24.63132812 12.85332031 24.26265625 13.58164062 23.8828125 14.33203125 C22.92509926 16.22299061 21.96285037 18.11165122 21 20 C20.67 20.66 20.34 21.32 20 22 C17.36 22 14.72 22 12 22 C11.67 20.02 11.34 18.04 11 16 C10.505 17.2375 10.505 17.2375 10 18.5 C9.01 19.7375 9.01 19.7375 8 21 C5.36 21 2.72 21 0 21 C0 14.07 0 7.14 0 0 Z " fill="#F2252A" transform="translate(10,8)"/>
<path d="M0 0 C3.50348957 3.00299106 4.40918903 4.5954492 5 9.125 C4.51322519 13.18145679 3.2522346 15.13880113 0.625 18.25 C-3.74846615 21.1656441 -7.16165994 21.81872801 -12.375 21.25 C-15.9136994 19.59860695 -17.18570153 18.53394771 -19.375 15.25 C-20.14268116 10.5635743 -19.78385085 7.05309989 -17.625 2.8125 C-12.67875011 -2.82072904 -6.57108328 -3.40722837 0 0 Z " fill="#F3252B" transform="translate(55.375,33.75)"/>
<path d="M0 0 C1.4540625 0.0309375 1.4540625 0.0309375 2.9375 0.0625 C2.6075 2.7025 2.2775 5.3425 1.9375 8.0625 C3.9175 8.0625 5.8975 8.0625 7.9375 8.0625 C8.2675 5.4225 8.5975 2.7825 8.9375 0.0625 C11.2475 0.0625 13.5575 0.0625 15.9375 0.0625 C14.7962963 18.2037037 14.7962963 18.2037037 10.9375 22.0625 C8.93791636 22.10330783 6.93704746 22.10504356 4.9375 22.0625 C4.8125 16.3125 4.8125 16.3125 5.9375 14.0625 C3.9575 14.0625 1.9775 14.0625 -0.0625 14.0625 C-0.206875 15.196875 -0.35125 16.33125 -0.5 17.5 C-1.0625 21.0625 -1.0625 21.0625 -2.0625 22.0625 C-4.06208364 22.10330783 -6.06295254 22.10504356 -8.0625 22.0625 C-7.41509036 17.21937791 -6.58221256 12.46995191 -5.5625 7.6875 C-5.3046875 6.46289062 -5.046875 5.23828125 -4.78125 3.9765625 C-3.8196625 0.0779523 -3.8196625 0.0779523 0 0 Z " fill="#EF262A" transform="translate(46.0625,7.9375)"/>
<path d="M0 0 C1.89510699 -0.08160748 3.79124504 -0.13946459 5.6875 -0.1875 C6.74324219 -0.22230469 7.79898438 -0.25710937 8.88671875 -0.29296875 C12.41531931 0.03908275 14.23679304 0.80153607 17 3 C17.5625 6.4375 17.5625 6.4375 17 10 C15.1875 12.4375 15.1875 12.4375 13 14 C12.01 14 11.02 14 10 14 C10 14.66 10 15.32 10 16 C10.66 16 11.32 16 12 16 C12 16.99 12 17.98 12 19 C10.68 19 9.36 19 8 19 C8 18.01 8 17.02 8 16 C5.49034386 16.70339566 5.49034386 16.70339566 3 18 C2.11306697 20.04105639 2.11306697 20.04105639 2 22 C-0.31 22 -2.62 22 -5 22 C-4.38955672 14.36945905 -2.20378179 7.29810526 0 0 Z " fill="#EF2427" transform="translate(64,32)"/>
<path d="M0 0 C5.94 0 11.88 0 18 0 C18 1.32 18 2.64 18 4 C14.04 4 10.08 4 6 4 C6 4.99 6 5.98 6 7 C8.64 7.33 11.28 7.66 14 8 C13.67 9.65 13.34 11.3 13 13 C10.03 13 7.06 13 4 13 C4 13.99 4 14.98 4 16 C7.3 16 10.6 16 14 16 C14 17.98 14 19.96 14 22 C8.06 22 2.12 22 -4 22 C-3.43801854 14.35705215 -1.98085646 7.40668067 0 0 Z " fill="#F01C21" transform="translate(86,8)"/>
<path d="M0 0 C0.74886475 0.00523682 1.49772949 0.01047363 2.26928711 0.01586914 C3.07817383 0.0190918 3.88706055 0.02231445 4.72045898 0.02563477 C5.5705957 0.03401367 6.42073242 0.04239258 7.29663086 0.05102539 C8.15063477 0.05553711 9.00463867 0.06004883 9.88452148 0.06469727 C12.00108749 0.07652166 14.11761771 0.0944577 16.23413086 0.11352539 C15.90413086 1.43352539 15.57413086 2.75352539 15.23413086 4.11352539 C11.60413086 4.44352539 7.97413086 4.77352539 4.23413086 5.11352539 C3.90413086 6.10352539 3.57413086 7.09352539 3.23413086 8.11352539 C6.20413086 8.11352539 9.17413086 8.11352539 12.23413086 8.11352539 C11.90413086 9.76352539 11.57413086 11.41352539 11.23413086 13.11352539 C7.93413086 13.11352539 4.63413086 13.11352539 1.23413086 13.11352539 C1.23413086 14.10352539 1.23413086 15.09352539 1.23413086 16.11352539 C4.86413086 16.11352539 8.49413086 16.11352539 12.23413086 16.11352539 C11.23413086 21.11352539 11.23413086 21.11352539 10.23413086 22.11352539 C7.37145519 22.18677707 4.53341186 22.20590744 1.67163086 22.17602539 C0.86532227 22.17151367 0.05901367 22.16700195 -0.77172852 22.16235352 C-2.7698067 22.15053057 -4.76784697 22.13259453 -6.76586914 22.11352539 C-6.18838532 17.04388378 -5.42720585 12.15235317 -4.26586914 7.17602539 C-4.00805664 6.05325195 -3.75024414 4.93047852 -3.48461914 3.77368164 C-2.50857928 0.16127324 -2.50857928 0.16127324 0 0 Z " fill="#E92F34" transform="translate(67.765869140625,7.886474609375)"/>
<path d="M0 0 C0 20.79 0 41.58 0 63 C-2.64 63 -5.28 63 -8 63 C-8 62.01 -8 61.02 -8 60 C-7.360625 59.71125 -6.72125 59.4225 -6.0625 59.125 C-3.84793921 58.17176549 -3.84793921 58.17176549 -3 56 C-2.88975055 54.41296801 -2.8408999 52.821469 -2.82299805 51.23071289 C-2.81016281 50.23950943 -2.79732758 49.24830597 -2.78410339 48.22706604 C-2.77671646 47.15311081 -2.76932953 46.07915558 -2.76171875 44.97265625 C-2.74961113 43.32287025 -2.74961113 43.32287025 -2.73725891 41.63975525 C-2.72341325 39.31039002 -2.71269326 36.98100445 -2.70483398 34.65161133 C-2.68758696 31.08050461 -2.64370018 27.51031529 -2.59960938 23.93945312 C-2.58948581 21.67969433 -2.58096866 19.41992764 -2.57421875 17.16015625 C-2.54795662 15.55225975 -2.54795662 15.55225975 -2.52116394 13.91188049 C-2.52408951 12.91752487 -2.52701508 11.92316925 -2.5300293 10.89868164 C-2.52122993 9.58535606 -2.52122993 9.58535606 -2.51225281 8.24549866 C-2.80370591 5.8754141 -2.80370591 5.8754141 -4.73230076 4.3845768 C-7.33652036 2.7945326 -8.74465975 2.61808522 -11.77093506 2.60127258 C-12.72723312 2.58873444 -13.68353119 2.57619629 -14.66880798 2.5632782 C-15.71106033 2.56471329 -16.75331268 2.56614838 -17.82714844 2.56762695 C-18.92988602 2.5574353 -20.0326236 2.54724365 -21.16877747 2.53674316 C-24.81569448 2.5065358 -28.46234915 2.49733514 -32.109375 2.48828125 C-34.63715493 2.47144036 -37.16492646 2.45329092 -39.69268799 2.43388367 C-45.66722162 2.39117648 -51.64167953 2.36167312 -57.6163094 2.33856028 C-64.41925565 2.31150676 -71.22206045 2.26759541 -78.02490568 2.22227156 C-92.01652697 2.1294301 -106.00819301 2.05774714 -120 2 C-120 1.67 -120 1.34 -120 1 C-105.68283818 0.8691185 -91.3656721 0.73871265 -77.04850101 0.60884857 C-70.40008918 0.5485303 -63.7516788 0.48806155 -57.10327148 0.42724609 C-50.68421685 0.36853419 -44.2651587 0.31022126 -37.84609795 0.25218201 C-35.40016997 0.2299971 -32.95424328 0.20766975 -30.50831795 0.18519592 C-27.0759425 0.15368294 -23.64356279 0.12268174 -20.21118164 0.09179688 C-19.20560715 0.08244614 -18.20003265 0.0730954 -17.16398621 0.0634613 C-15.74447159 0.05084007 -15.74447159 0.05084007 -14.29627991 0.03796387 C-13.48602387 0.03058952 -12.67576784 0.02321518 -11.8409586 0.01561737 C-7.8940286 -0.00607977 -3.94698963 0 0 0 Z " fill="#3B3D3C" transform="translate(129,0)"/>
<path d="M0 0 C1.98 0 3.96 0 6 0 C5.52013969 5.56890517 4.70084819 10.67067568 3 16 C6.63 16 10.26 16 14 16 C14 17.65 14 19.3 14 21 C13 22 13 22 11.23413086 22.11352539 C10.48526611 22.10828857 9.73640137 22.10305176 8.96484375 22.09765625 C8.15595703 22.09443359 7.34707031 22.09121094 6.51367188 22.08789062 C5.66353516 22.07951172 4.81339844 22.07113281 3.9375 22.0625 C3.08349609 22.05798828 2.22949219 22.05347656 1.34960938 22.04882812 C-0.76695663 22.03700373 -2.88348685 22.01906769 -5 22 C-3.89644911 14.44392214 -2.40656211 7.25177382 0 0 Z " fill="#F22226" transform="translate(107,8)"/>
<path d="M0 0 C1.89510699 -0.08160748 3.79124504 -0.13946459 5.6875 -0.1875 C6.74324219 -0.22230469 7.79898438 -0.25710937 8.88671875 -0.29296875 C12.41531931 0.03908275 14.23679304 0.80153607 17 3 C17.5625 6.4375 17.5625 6.4375 17 10 C15 12.4375 15 12.4375 13 14 C12.67 13.34 12.34 12.68 12 12 C12.33 11.34 12.66 10.68 13 10 C12.01 10.495 12.01 10.495 11 11 C7.9375 11.125 7.9375 11.125 5 11 C4 10 4 10 3.90234375 8.15234375 C3.93489583 6.1015625 3.96744792 4.05078125 4 2 C3.01 2 2.02 2 1 2 C1.33 3.65 1.66 5.3 2 7 C0.68 7.99 -0.64 8.98 -2 10 C-1.125 2.25 -1.125 2.25 0 0 Z " fill="#F82934" transform="translate(64,32)"/>
<path d="M0 0 C0.66 0 1.32 0 2 0 C2 1.98 2 3.96 2 6 C2.66 6 3.32 6 4 6 C4 7.32 4 8.64 4 10 C7.96 10 11.92 10 16 10 C15 15 15 15 14 16 C11.13732433 16.07325168 8.299281 16.09238205 5.4375 16.0625 C4.63119141 16.05798828 3.82488281 16.05347656 2.99414062 16.04882812 C0.99606244 16.03700518 -1.00197783 16.01906914 -3 16 C-2.357731 10.49153077 -1.43508322 5.35764403 0 0 Z " fill="#F51B1C" transform="translate(64,14)"/>
<path d="M0 0 C0.66 0.33 1.32 0.66 2 1 C2 19.81 2 38.62 2 58 C-0.64 58 -3.28 58 -6 58 C-6 57.01 -6 56.02 -6 55 C-5.360625 54.71125 -4.72125 54.4225 -4.0625 54.125 C-1.84793921 53.17176549 -1.84793921 53.17176549 -1 51 C-0.88127427 49.36664808 -0.82290908 47.72872646 -0.79467773 46.09130859 C-0.77473251 45.07040131 -0.75478729 44.04949402 -0.73423767 42.99765015 C-0.70916893 41.33978989 -0.70916893 41.33978989 -0.68359375 39.6484375 C-0.66281265 38.5192691 -0.64203156 37.39010071 -0.62062073 36.22671509 C-0.55508665 32.60954028 -0.49622226 28.99229119 -0.4375 25.375 C-0.39431846 22.92707556 -0.35070429 20.47915872 -0.30664062 18.03125 C-0.19940133 12.0209125 -0.09764213 6.01050065 0 0 Z " fill="#2C2C2C" transform="translate(127,5)"/>
<path d="M0 0 C5.94 0 11.88 0 18 0 C18 1.32 18 2.64 18 4 C14.04 4 10.08 4 6 4 C6 4.99 6 5.98 6 7 C8.64 7.33 11.28 7.66 14 8 C14 9.32 14 10.64 14 12 C12.68 12 11.36 12 10 12 C10 11.34 10 10.68 10 10 C7.36 10 4.72 10 2 10 C2 9.34 2 8.68 2 8 C1.34 8 0.68 8 0 8 C0 5.36 0 2.72 0 0 Z " fill="#F7131E" transform="translate(86,8)"/>
<path d="M0 0 C3.96 0 7.92 0 12 0 C13.32088682 5.15145861 13.03378419 10.07118628 11 15 C10.01 15.33 9.02 15.66 8 16 C8 14.68 8 13.36 8 12 C4.7 12 1.4 12 -2 12 C-2 11.01 -2 10.02 -2 9 C2.455 8.505 2.455 8.505 7 8 C7.33 6.68 7.66 5.36 8 4 C5.03 4 2.06 4 -1 4 C-0.67 2.68 -0.34 1.36 0 0 Z " fill="#F1EFF2" transform="translate(92,12)"/>
<path d="M0 0 C1.56659619 6.02536998 1.56659619 6.02536998 -0.046875 8.80078125 C-1.29161056 10.26579304 -2.64065712 11.64065712 -4 13 C-8.875 12.125 -8.875 12.125 -10 11 C-10.36395977 7.14202645 -10.56007535 4.84011302 -8.375 1.5625 C-5.397402 -0.39644605 -3.49644963 -0.31785906 0 0 Z " fill="#F6F6F6" transform="translate(52,37)"/>
<path d="M0 0 C1.32 0 2.64 0 4 0 C4.0270043 1.45823212 4.04639787 2.91660675 4.0625 4.375 C4.07410156 5.18710938 4.08570313 5.99921875 4.09765625 6.8359375 C4 9 4 9 3 11 C4.32 11 5.64 11 7 11 C7 11.66 7 12.32 7 13 C7.66 13.33 8.32 13.66 9 14 C8.34 15.98 7.68 17.96 7 20 C4.36 20 1.72 20 -1 20 C-0.67 13.4 -0.34 6.8 0 0 Z " fill="#EF1920" transform="translate(11,9)"/>
<path d="M0 0 C0.00257812 0.61488281 0.00515625 1.22976562 0.0078125 1.86328125 C0.12758505 4.36652757 0.33225678 6.58157104 1 9 C3.73617047 11.28582677 3.73617047 11.28582677 7 12 C7.99 11.67 8.98 11.34 10 11 C10 11.99 10 12.98 10 14 C-0.92263221 15.73456895 -0.92263221 15.73456895 -4.75 13.125 C-6.40800276 8.97999311 -6.34546803 5.40471733 -6 1 C-3.92446352 0.4465236 -2.15634036 0 0 0 Z " fill="#F72129" transform="translate(42,39)"/>
<path d="M0 0 C1.4540625 0.0309375 1.4540625 0.0309375 2.9375 0.0625 C2.6075 2.7025 2.2775 5.3425 1.9375 8.0625 C3.9175 8.0625 5.8975 8.0625 7.9375 8.0625 C8.2675 6.7425 8.5975 5.4225 8.9375 4.0625 C8.9375 5.7125 8.9375 7.3625 8.9375 9.0625 C5.9675 9.0625 2.9975 9.0625 -0.0625 9.0625 C0.2675 6.7525 0.5975 4.4425 0.9375 2.0625 C-0.0525 2.3925 -1.0425 2.7225 -2.0625 3.0625 C-2.05089844 3.83335938 -2.03929687 4.60421875 -2.02734375 5.3984375 C-2.01380859 6.90277344 -2.01380859 6.90277344 -2 8.4375 C-1.98839844 9.43523438 -1.97679687 10.43296875 -1.96484375 11.4609375 C-2.0625 14.0625 -2.0625 14.0625 -3.0625 16.0625 C-3.7225 16.0625 -4.3825 16.0625 -5.0625 16.0625 C-4.7325 17.3825 -4.4025 18.7025 -4.0625 20.0625 C-3.4025 20.0625 -2.7425 20.0625 -2.0625 20.0625 C-1.7325 18.0825 -1.4025 16.1025 -1.0625 14.0625 C0.1452558 17.68576739 -0.51938872 18.70396369 -2.0625 22.0625 C-4.0425 22.0625 -6.0225 22.0625 -8.0625 22.0625 C-7.41509036 17.21937791 -6.58221256 12.46995191 -5.5625 7.6875 C-5.3046875 6.46289062 -5.046875 5.23828125 -4.78125 3.9765625 C-3.8196625 0.0779523 -3.8196625 0.0779523 0 0 Z " fill="#F62D37" transform="translate(46.0625,7.9375)"/>
<path d="M0 0 C1.98 0 3.96 0 6 0 C5.38188466 4.55315948 3.53234107 8.28459767 1.4375 12.3125 C0.9434668 13.28026367 0.9434668 13.28026367 0.43945312 14.26757812 C-0.36824255 15.84785228 -1.18337613 17.42432105 -2 19 C-2.66 18.67 -3.32 18.34 -4 18 C-4 16.68 -4 15.36 -4 14 C-4.66 14 -5.32 14 -6 14 C-4.50829734 9.0276578 -2.39542583 4.58154261 0 0 Z " fill="#ED3A3F" transform="translate(32,32)"/>
<path d="M0 0 C0.886875 0.103125 1.77375 0.20625 2.6875 0.3125 C1.31805898 3.26206528 -0.19080409 5.83718811 -2.3125 8.3125 C-2.9725 8.3125 -3.6325 8.3125 -4.3125 8.3125 C-4.3125 8.9725 -4.3125 9.6325 -4.3125 10.3125 C-4.9725 10.3125 -5.6325 10.3125 -6.3125 10.3125 C-5.96805119 12.78516765 -5.96805119 12.78516765 -5.3125 15.3125 C-2.47980334 16.72884833 0.16216438 16.6588005 3.3125 16.875 C4.50101563 16.95878906 5.68953125 17.04257812 6.9140625 17.12890625 C8.28691406 17.21978516 8.28691406 17.21978516 9.6875 17.3125 C9.6875 17.6425 9.6875 17.9725 9.6875 18.3125 C8.78386719 18.36148438 7.88023438 18.41046875 6.94921875 18.4609375 C5.76972656 18.53570312 4.59023437 18.61046875 3.375 18.6875 C2.20324219 18.75710937 1.03148438 18.82671875 -0.17578125 18.8984375 C-3.46949887 19.09863747 -3.46949887 19.09863747 -6.3125 21.3125 C-7.6325 20.6525 -8.9525 19.9925 -10.3125 19.3125 C-8.9925 18.9825 -7.6725 18.6525 -6.3125 18.3125 C-6.6425 17.6525 -6.9725 16.9925 -7.3125 16.3125 C-7.44607453 12.63920036 -7.4796568 9.81397041 -6.3125 6.3125 C-6.9725 5.9825 -7.6325 5.6525 -8.3125 5.3125 C-4.12788462 0.38942308 -4.12788462 0.38942308 0 0 Z " fill="#F32829" transform="translate(100.3125,31.6875)"/>
<path d="M0 0 C1.98 0 3.96 0 6 0 C5.67 2.64 5.34 5.28 5 8 C7.31 8 9.62 8 12 8 C12 8.66 12 9.32 12 10 C11.03578125 10.06058594 10.0715625 10.12117188 9.078125 10.18359375 C7.81484375 10.26738281 6.5515625 10.35117187 5.25 10.4375 C3.99703125 10.51871094 2.7440625 10.59992187 1.453125 10.68359375 C-1.18317553 10.92515522 -3.48037294 11.24283934 -6 12 C-5.6875 10.0625 -5.6875 10.0625 -5 8 C-4.01 7.67 -3.02 7.34 -2 7 C-0.77030122 3.48809191 -0.77030122 3.48809191 0 0 Z " fill="#F1FAFB" transform="translate(46,22)"/>
<path d="M0 0 C0.99 0 1.98 0 3 0 C2.67 2.31 2.34 4.62 2 7 C4.64 7 7.28 7 10 7 C10 8.65 10 10.3 10 12 C10.66 12 11.32 12 12 12 C12 12.66 12 13.32 12 14 C11.01 14 10.02 14 9 14 C8.67 13.01 8.34 12.02 8 11 C6.02 11.33 4.04 11.66 2 12 C1.34 13.98 0.68 15.96 0 18 C-0.66 18 -1.32 18 -2 18 C-2.33 16.68 -2.66 15.36 -3 14 C-2.34 14 -1.68 14 -1 14 C-1.01160156 13.07316406 -1.02320313 12.14632813 -1.03515625 11.19140625 C-1.04417969 9.99386719 -1.05320313 8.79632813 -1.0625 7.5625 C-1.07410156 6.36753906 -1.08570313 5.17257812 -1.09765625 3.94140625 C-1 1 -1 1 0 0 Z " fill="#E81B1D" transform="translate(44,10)"/>
<path d="M0 0 C1.31223496 3.93670488 0.24296256 6.12488144 -1 10 C2.63 10 6.26 10 10 10 C10 11.65 10 13.3 10 15 C9 16 9 16 7.23413086 16.11352539 C6.48526611 16.10828857 5.73640137 16.10305176 4.96484375 16.09765625 C4.15595703 16.09443359 3.34707031 16.09121094 2.51367188 16.08789062 C1.66353516 16.07951172 0.81339844 16.07113281 -0.0625 16.0625 C-0.91650391 16.05798828 -1.77050781 16.05347656 -2.65039062 16.04882812 C-4.76695663 16.03700373 -6.88348685 16.01906769 -9 16 C-8.67 13.36 -8.34 10.72 -8 8 C-7.67 8 -7.34 8 -7 8 C-7 9.98 -7 11.96 -7 14 C-1.72 14 3.56 14 9 14 C9 13.01 9 12.02 9 11 C5.37 11 1.74 11 -2 11 C-2.33 8.03 -2.66 5.06 -3 2 C-2.01 2 -1.02 2 0 2 C0 1.34 0 0.68 0 0 Z " fill="#E6575B" transform="translate(111,14)"/>
<path d="M0 0 C0.33 0 0.66 0 1 0 C1.49230769 6.4 1.49230769 6.4 -1 9.4375 C-1.99 10.2109375 -1.99 10.2109375 -3 11 C-3.33 10.34 -3.66 9.68 -4 9 C-3.67 8.34 -3.34 7.68 -3 7 C-3.99 7.495 -3.99 7.495 -5 8 C-8.0625 8.125 -8.0625 8.125 -11 8 C-12 7 -12 7 -12.0625 4.4375 C-12.041875 3.633125 -12.02125 2.82875 -12 2 C-8.7169902 0.3584951 -5.57454967 1.48111376 -2 2 C-2 3.32 -2 4.64 -2 6 C-1.34 6 -0.68 6 0 6 C0 4.02 0 2.04 0 0 Z " fill="#E83B41" transform="translate(80,35)"/>
<path d="M0 0 C0.66 0 1.32 0 2 0 C2.33 3.3 2.66 6.6 3 10 C3.99 10 4.98 10 6 10 C4.96008872 13.01574271 4.03085171 13.97991051 1.3125 15.75 C-2.35033925 17.13220349 -5.11747717 17.23295137 -9 17 C-8.67 16.34 -8.34 15.68 -8 15 C-5.36 15 -2.72 15 0 15 C-0.33 14.34 -0.66 13.68 -1 13 C-1.99 13.33 -2.98 13.66 -4 14 C-3.5500048 11.4800269 -3.0984993 10.11819916 -1.4375 8.125 C0.45876848 5.3218205 0.22577486 3.31136456 0 0 Z " fill="#EB3135" transform="translate(52,38)"/>
<path d="M0 0 C3.125 -0.1875 3.125 -0.1875 6 0 C6 3.3 6 6.6 6 10 C5.34 10 4.68 10 4 10 C4 9.34 4 8.68 4 8 C2.02 8.66 0.04 9.32 -2 10 C-2.25 3.375 -2.25 3.375 0 0 Z " fill="#F02021" transform="translate(22,8)"/>
<path d="M0 0 C0.33 0 0.66 0 1 0 C1 2.31 1 4.62 1 7 C4.63 7 8.26 7 12 7 C12 7.99 12 8.98 12 10 C6.72 10 1.44 10 -4 10 C-4 4 -4 4 -2 2 C-1.67 2.66 -1.34 3.32 -1 4 C-0.67 2.68 -0.34 1.36 0 0 Z " fill="#F01B1E" transform="translate(108,18)"/>
<path d="M0 0 C0.33 0 0.66 0 1 0 C0.67 3.3 0.34 6.6 0 10 C4.95 10 9.9 10 15 10 C15 9.34 15 8.68 15 8 C12.03 7.67 9.06 7.34 6 7 C6 6.67 6 6.34 6 6 C9.63 6 13.26 6 17 6 C16 11 16 11 15 12 C12.13732433 12.07325168 9.299281 12.09238205 6.4375 12.0625 C5.63119141 12.05798828 4.82488281 12.05347656 3.99414062 12.04882812 C1.99606244 12.03700518 -0.00197783 12.01906914 -2 12 C-0.9375 3.21428571 -0.9375 3.21428571 0 0 Z " fill="#EE5359" transform="translate(63,18)"/>
<path d="M0 0 C1.94921875 0.71875 1.94921875 0.71875 4 2 C4.64453125 4.09375 4.64453125 4.09375 4.8125 6.5 C4.88082031 7.2940625 4.94914062 8.088125 5.01953125 8.90625 C5 11 5 11 4 13 C2.68 13 1.36 13 0 13 C-0.94738023 10.15785932 -1.13460559 8.32391609 -1.125 5.375 C-1.12757812 4.57835937 -1.13015625 3.78171875 -1.1328125 2.9609375 C-1 1 -1 1 0 0 Z " fill="#F32427" transform="translate(55,35)"/>
<path d="M0 0 C0.33 0 0.66 0 1 0 C1 1.65 1 3.3 1 5 C1.66 5 2.32 5 3 5 C3 5.66 3 6.32 3 7 C5.64 7 8.28 7 11 7 C11 7.66 11 8.32 11 9 C11.99 9.33 12.98 9.66 14 10 C11.03 10 8.06 10 5 10 C5 10.99 5 11.98 5 13 C8.3 13 11.6 13 15 13 C15 13.33 15 13.66 15 14 C11.37 14 7.74 14 4 14 C4 13.01 4 12.02 4 11 C3.01 11.33 2.02 11.66 1 12 C1 10.35 1 8.7 1 7 C0.34 7 -0.32 7 -1 7 C-0.67 4.69 -0.34 2.38 0 0 Z " fill="#EB3F43" transform="translate(85,11)"/>
<path d="M0 0 C0.33 0 0.66 0 1 0 C1.7342166 6.75479274 -0.72408048 11.18524285 -4 17 C-4.33 17 -4.66 17 -5 17 C-5 13.37 -5 9.74 -5 6 C-4.34 6 -3.68 6 -3 6 C-3 5.34 -3 4.68 -3 4 C-4.98 4 -6.96 4 -9 4 C-9 3.67 -9 3.34 -9 3 C-6.36 3 -3.72 3 -1 3 C-0.67 2.01 -0.34 1.02 0 0 Z " fill="#FBE0E4" transform="translate(19,26)"/>
<path d="M0 0 C0.66 0 1.32 0 2 0 C1.98839844 0.68707031 1.97679688 1.37414063 1.96484375 2.08203125 C1.95582031 2.98308594 1.94679688 3.88414063 1.9375 4.8125 C1.92589844 5.70582031 1.91429688 6.59914063 1.90234375 7.51953125 C1.88990033 10.13413791 1.88990033 10.13413791 3 13 C1.35 12.67 -0.3 12.34 -2 12 C-2 10.68 -2 9.36 -2 8 C-3.32 8 -4.64 8 -6 8 C-5.38722388 5.03824877 -4.74627478 3.61941217 -3 1 C-2.01 1.33 -1.02 1.66 0 2 C0 1.34 0 0.68 0 0 Z " fill="#F41B1B" transform="translate(92,38)"/>
<path d="M0 0 C0.33 1.32 0.66 2.64 1 4 C1.99 4 2.98 4 4 4 C4 3.34 4 2.68 4 2 C4.66 2 5.32 2 6 2 C6.04241723 4.33294775 6.04092937 6.66702567 6 9 C5 10 5 10 1.9375 10.0625 C0.968125 10.041875 -0.00125 10.02125 -1 10 C-1.125 4.25 -1.125 4.25 0 2 C-1.98 2 -3.96 2 -6 2 C-6 1.67 -6 1.34 -6 1 C-4.02 0.67 -2.04 0.34 0 0 Z " fill="#EF3436" transform="translate(52,20)"/>
<path d="M0 0 C0.66 0.33 1.32 0.66 2 1 C2.625 3.5625 2.625 3.5625 3 6 C2.01 6 1.02 6 0 6 C0 6.66 0 7.32 0 8 C5.61 8 11.22 8 17 8 C17 8.66 17 9.32 17 10 C11.06 10 5.12 10 -1 10 C-0.67 6.7 -0.34 3.4 0 0 Z " fill="#EB484F" transform="translate(83,20)"/>
<path d="M0 0 C0.70189453 0.00451172 1.40378906 0.00902344 2.12695312 0.01367188 C3.85550538 0.02543073 5.58401365 0.04336546 7.3125 0.0625 C7.3125 1.0525 7.3125 2.0425 7.3125 3.0625 C1.3725 3.0625 -4.5675 3.0625 -10.6875 3.0625 C-10.6875 2.4025 -10.6875 1.7425 -10.6875 1.0625 C-7.06882441 -0.1437252 -3.76243749 -0.04566918 0 0 Z " fill="#F81822" transform="translate(104.6875,50.9375)"/>
<path d="M0 0 C0.33 0 0.66 0 1 0 C1 1.98 1 3.96 1 6 C0.34 6 -0.32 6 -1 6 C-1.33 6.66 -1.66 7.32 -2 8 C-5.25 8.3125 -5.25 8.3125 -9 8 C-11.4375 5.5 -11.4375 5.5 -13 3 C-11.68 2.67 -10.36 2.34 -9 2 C-9 2.99 -9 3.98 -9 5 C-7.68 5 -6.36 5 -5 5 C-5 4.34 -5 3.68 -5 3 C-3.68 3 -2.36 3 -1 3 C-0.67 2.01 -0.34 1.02 0 0 Z " fill="#E53739" transform="translate(81,46)"/>
<path d="M0 0 C1.98 0 3.96 0 6 0 C5.28849593 3.69982119 3.9580784 6.78315692 2 10 C-0.6875 11.375 -0.6875 11.375 -3 12 C-2.56671758 9.48696195 -2.3219867 8.28483439 -0.375 6.5625 C0.07875 6.046875 0.5325 5.53125 1 5 C0.76956136 2.34533951 0.76956136 2.34533951 0 0 Z " fill="#F42024" transform="translate(34,8)"/>
<path d="M0 0 C1.98 0 3.96 0 6 0 C6.33 3.3 6.66 6.6 7 10 C7.66 9.34 8.32 8.68 9 8 C9.33 10.31 9.66 12.62 10 15 C7.5625 14.625 7.5625 14.625 5 14 C3.67770811 11.35541621 3.90322806 9.32238699 3.9375 6.375 C3.94652344 5.37210938 3.95554687 4.36921875 3.96484375 3.3359375 C3.98224609 2.17964844 3.98224609 2.17964844 4 1 C2.68 0.67 1.36 0.34 0 0 Z " fill="#F13C41" transform="translate(8,32)"/>
<path d="M0 0 C5.94 0 11.88 0 18 0 C18 1.32 18 2.64 18 4 C14.04 4 10.08 4 6 4 C5.67 5.32 5.34 6.64 5 8 C4.34 7.34 3.68 6.68 3 6 C3 5.01 3 4.02 3 3 C7.62 3 12.24 3 17 3 C17 2.34 17 1.68 17 1 C8.585 1.495 8.585 1.495 0 2 C0 1.34 0 0.68 0 0 Z " fill="#F6282E" transform="translate(86,8)"/>
<path d="M0 0 C0.66 0.66 1.32 1.32 2 2 C1.71267364 6.45355865 1.4056198 10.15100832 -1 14 C-2.98 13.34 -4.96 12.68 -7 12 C-7 11.34 -7 10.68 -7 10 C-5.02 9.34 -3.04 8.68 -1 8 C-0.67 5.36 -0.34 2.72 0 0 Z " fill="#F6E0E5" transform="translate(81,36)"/>
<path d="M0 0 C0.763125 0.103125 1.52625 0.20625 2.3125 0.3125 C1.3225 0.6425 0.3325 0.9725 -0.6875 1.3125 C-0.80867188 2.01117188 -0.92984375 2.70984375 -1.0546875 3.4296875 C-1.22226562 4.33976562 -1.38984375 5.24984375 -1.5625 6.1875 C-1.72492187 7.09242187 -1.88734375 7.99734375 -2.0546875 8.9296875 C-2.6875 11.3125 -2.6875 11.3125 -4.6875 13.3125 C-6.09750664 10.49248673 -5.93298451 8.44242745 -5.6875 5.3125 C-3.66944371 0.4266795 -3.66944371 0.4266795 0 0 Z " fill="#ED2225" transform="translate(34.6875,32.6875)"/>
<path d="M0 0 C0 2.31 0 4.62 0 7 C-0.66 7 -1.32 7 -2 7 C-2.33 6.01 -2.66 5.02 -3 4 C-5.31 3.67 -7.62 3.34 -10 3 C-10 2.01 -10 1.02 -10 0 C-6.33694766 -0.74926071 -3.57644848 -1.2380014 0 0 Z " fill="#F51F2B" transform="translate(80,34)"/>
<path d="M0 0 C0.598125 0.78375 1.19625 1.5675 1.8125 2.375 C3.91085249 5.14574323 3.91085249 5.14574323 7 7 C7 7.66 7 8.32 7 9 C4.36 9 1.72 9 -1 9 C-1.125 2.25 -1.125 2.25 0 0 Z " fill="#0D150C" transform="translate(1,54)"/>
<path d="M0 0 C0.99 0.33 1.98 0.66 3 1 C2.34 1 1.68 1 1 1 C1.34444881 3.47266765 1.34444881 3.47266765 2 6 C4.83269666 7.41634833 7.47466438 7.3463005 10.625 7.5625 C11.81351563 7.64628906 13.00203125 7.73007812 14.2265625 7.81640625 C15.59941406 7.90728516 15.59941406 7.90728516 17 8 C17 8.33 17 8.66 17 9 C16.09636719 9.04898438 15.19273438 9.09796875 14.26171875 9.1484375 C12.49248047 9.26058594 12.49248047 9.26058594 10.6875 9.375 C8.92986328 9.47941406 8.92986328 9.47941406 7.13671875 9.5859375 C3.84300113 9.78613747 3.84300113 9.78613747 1 12 C-0.32 11.34 -1.64 10.68 -3 10 C-1.68 9.67 -0.36 9.34 1 9 C0.67 8.34 0.34 7.68 0 7 C-0.04022391 4.6670134 -0.04320247 2.33293334 0 0 Z " fill="#DE4145" transform="translate(93,41)"/>
<path d="M0 0 C0.99 0 1.98 0 3 0 C3.06058594 0.67546875 3.12117187 1.3509375 3.18359375 2.046875 C3.26738281 2.93890625 3.35117188 3.8309375 3.4375 4.75 C3.55931641 6.07257812 3.55931641 6.07257812 3.68359375 7.421875 C3.96238465 9.69350452 4.38790577 11.79851823 5 14 C4.01 13.01 3.02 12.02 2 11 C1.34 11.99 0.68 12.98 0 14 C0 9.38 0 4.76 0 0 Z " fill="#F11414" transform="translate(9,34)"/>
<path d="M0 0 C0.66 0 1.32 0 2 0 C2 1.32 2 2.64 2 4 C-3.94 4 -9.88 4 -16 4 C-16 3.34 -16 2.68 -16 2 C-10.72 2 -5.44 2 0 2 C0 1.34 0 0.68 0 0 Z " fill="#EEFFFD" transform="translate(122,28)"/>
<path d="M0 0 C0.33 0.99 0.66 1.98 1 3 C1.928125 2.95875 2.85625 2.9175 3.8125 2.875 C7 3 7 3 10 5 C10.1875 8.125 10.1875 8.125 10 11 C9.67 11 9.34 11 9 11 C9 9.35 9 7.7 9 6 C7.68 6 6.36 6 5 6 C5 5.34 5 4.68 5 4 C1.88214887 4.64644661 1.88214887 4.64644661 1 7 C1.66 7.33 2.32 7.66 3 8 C0.0625 7.625 0.0625 7.625 -3 7 C-3.33 6.34 -3.66 5.68 -4 5 C-3.01 4.67 -2.02 4.34 -1 4 C-0.26676204 1.98491642 -0.26676204 1.98491642 0 0 Z " fill="#E74148" transform="translate(107,38)"/>
<path d="M0 0 C1.32 0.66 2.64 1.32 4 2 C4 3.98 4 5.96 4 8 C5.98 8 7.96 8 10 8 C10 8.66 10 9.32 10 10 C7.36 10 4.72 10 2 10 C1.67 8.02 1.34 6.04 1 4 C0.34 4.66 -0.32 5.32 -1 6 C-0.67 4.02 -0.34 2.04 0 0 Z " fill="#EE4E53" transform="translate(20,20)"/>
<path d="M0 0 C2.35448165 2.55068845 2.98327924 3.71017358 3.1875 7.25 C3.125625 8.1575 3.06375 9.065 3 10 C1.02 10 -0.96 10 -3 10 C-3 9.34 -3 8.68 -3 8 C-2.34 8 -1.68 8 -1 8 C-1.020625 7.05125 -1.04125 6.1025 -1.0625 5.125 C-1 2 -1 2 0 0 Z " fill="#FA161D" transform="translate(83,44)"/>
<path d="M0 0 C0.33 0.66 0.66 1.32 1 2 C3.97 2 6.94 2 10 2 C6 4 6 4 4 4 C3.67 4.99 3.34 5.98 3 7 C2.67 6.34 2.34 5.68 2 5 C0.35 5.33 -1.3 5.66 -3 6 C-1.125 1.125 -1.125 1.125 0 0 Z " fill="#E73A3F" transform="translate(40,34)"/>
<path d="M0 0 C0.99 0.33 1.98 0.66 3 1 C2.67 2.65 2.34 4.3 2 6 C1.67 5.34 1.34 4.68 1 4 C-2.96 4 -6.92 4 -11 4 C-11.33 4.66 -11.66 5.32 -12 6 C-11.67 4.68 -11.34 3.36 -11 2 C-7.37 2 -3.74 2 0 2 C0 1.34 0 0.68 0 0 Z " fill="#EDD1D0" transform="translate(83,10)"/>
<path d="M0 0 C5.28 0 10.56 0 16 0 C16 0.66 16 1.32 16 2 C8.08 2.495 8.08 2.495 0 3 C0 2.01 0 1.02 0 0 Z " fill="#F60C11" transform="translate(66,9)"/>
<path d="M0 0 C2.97 0 5.94 0 9 0 C9 1.98 9 3.96 9 6 C5.51669784 5.35494404 2.90567134 4.01782732 0 2 C0 1.34 0 0.68 0 0 Z " fill="#0C180E" transform="translate(120,0)"/>
<path d="M0 0 C1.32 0.66 2.64 1.32 4 2 C3.54625 2.969375 3.0925 3.93875 2.625 4.9375 C0.79678151 9.16579678 -0.1309366 13.49109461 -1 18 C-1.33 17.01 -1.66 16.02 -2 15 C-2.66 14.67 -3.32 14.34 -4 14 C-2.35 10.37 -0.7 6.74 1 3 C0.34 3 -0.32 3 -1 3 C-0.67 2.01 -0.34 1.02 0 0 Z " fill="#F1DBDB" transform="translate(37,29)"/>
<path d="M0 0 C0.66 0 1.32 0 2 0 C1.35550393 3.01217112 0.34977818 5.51655836 -1.0625 8.25 C-1.42472656 8.95640625 -1.78695313 9.6628125 -2.16015625 10.390625 C-2.43730469 10.92171875 -2.71445312 11.4528125 -3 12 C-3.33 12 -3.66 12 -4 12 C-4 8.7 -4 5.4 -4 2 C-2.68 2 -1.36 2 0 2 C0 1.34 0 0.68 0 0 Z " fill="#F3EEF0" transform="translate(32,8)"/>
<path d="M0 0 C1.98 0 3.96 0 6 0 C6 1.65 6 3.3 6 5 C5.67 3.68 5.34 2.36 5 1 C3.68 1.33 2.36 1.66 1 2 C0.67 5.96 0.34 9.92 0 14 C-0.99 14 -1.98 14 -3 14 C-2.48594831 9.03083364 -1.76615118 4.70973649 0 0 Z " fill="#ED444B" transform="translate(85,32)"/>
<path d="M0 0 C2.6015625 -0.29296875 2.6015625 -0.29296875 5.625 -0.1875 C7.12933594 -0.14689453 7.12933594 -0.14689453 8.6640625 -0.10546875 C9.43492188 -0.07066406 10.20578125 -0.03585938 11 0 C10.67 0.99 10.34 1.98 10 3 C6.04 3 2.08 3 -2 3 C-1.34 2.01 -0.68 1.02 0 0 Z " fill="#E81E1D" transform="translate(68,25)"/>
<path d="M0 0 C1.2077558 3.62326739 0.54311128 4.64146369 -1 8 C-2.98 8 -4.96 8 -7 8 C-6.67 5.69 -6.34 3.38 -6 1 C-4.5 2.375 -4.5 2.375 -3 4 C-3 4.66 -3 5.32 -3 6 C-2.34 6 -1.68 6 -1 6 C-0.67 4.02 -0.34 2.04 0 0 Z " fill="#ED444C" transform="translate(45,22)"/>
<path d="M0 0 C1.31223496 3.93670488 0.24296256 6.12488144 -1 10 C2.63 10 6.26 10 10 10 C10 11.65 10 13.3 10 15 C9.67 13.68 9.34 12.36 9 11 C5.37 11 1.74 11 -2 11 C-2.33 8.03 -2.66 5.06 -3 2 C-2.01 2 -1.02 2 0 2 C0 1.34 0 0.68 0 0 Z " fill="#EE454B" transform="translate(111,14)"/>
<path d="M0 0 C1.37562854 1.28965176 2.70766393 2.62689293 4 4 C4 4.66 4 5.32 4 6 C4.66 6 5.32 6 6 6 C6 6.66 6 7.32 6 8 C3.69 8 1.38 8 -1 8 C-0.67 5.36 -0.34 2.72 0 0 Z " fill="#E9201E" transform="translate(10,44)"/>
<path d="M0 0 C1.98362069 2.91708924 1.9876191 4.12380904 1.625 7.75 C1.41875 8.8225 1.2125 9.895 1 11 C0.01 11 -0.98 11 -2 11 C-1.85957123 9.35369672 -1.71250671 7.70795821 -1.5625 6.0625 C-1.48128906 5.14597656 -1.40007813 4.22945312 -1.31640625 3.28515625 C-1 1 -1 1 0 0 Z " fill="#F3232C" transform="translate(42,13)"/>
<path d="M0 0 C0.66 0 1.32 0 2 0 C2 0.66 2 1.32 2 2 C4.64 2.33 7.28 2.66 10 3 C10 3.99 10 4.98 10 6 C7.36 6 4.72 6 2 6 C2 5.34 2 4.68 2 4 C1.34 3.67 0.68 3.34 0 3 C0 2.01 0 1.02 0 0 Z " fill="#F8171D" transform="translate(68,14)"/>
<path d="M0 0 C0.66 0 1.32 0 2 0 C2.33 1.65 2.66 3.3 3 5 C2.34 5 1.68 5 1 5 C1 5.66 1 6.32 1 7 C-0.98 7 -2.96 7 -5 7 C-5 5.35 -5 3.7 -5 2 C-4.34 1.67 -3.68 1.34 -3 1 C-3 2.32 -3 3.64 -3 5 C-2.01 4.67 -1.02 4.34 0 4 C0 2.68 0 1.36 0 0 Z " fill="#E71714" transform="translate(26,46)"/>
<path d="M0 0 C0.66 0 1.32 0 2 0 C2.33 3.3 2.66 6.6 3 10 C3.99 10 4.98 10 6 10 C5.67 10.99 5.34 11.98 5 13 C4.01 12.67 3.02 12.34 2 12 C2 11.34 2 10.68 2 10 C0.68 9.67 -0.64 9.34 -2 9 C-1.34 8.01 -0.68 7.02 0 6 C0.16699232 2.87478167 0.16699232 2.87478167 0 0 Z " fill="#E03636" transform="translate(52,38)"/>
<path d="M0 0 C1.98 0 3.96 0 6 0 C6 3 6 3 4.6875 4.38671875 C3.125 5.59114583 1.5625 6.79557292 0 8 C0 5.36 0 2.72 0 0 Z " fill="#F8E9ED" transform="translate(90,31)"/>
<path d="M0 0 C3.96 0 7.92 0 12 0 C12.33 1.98 12.66 3.96 13 6 C12.67 5.34 12.34 4.68 12 4 C11.34 4 10.68 4 10 4 C9.67 4.66 9.34 5.32 9 6 C8.67 4.35 8.34 2.7 8 1 C5.36 1 2.72 1 0 1 C0 0.67 0 0.34 0 0 Z " fill="#E8CDCD" transform="translate(92,12)"/>
<path d="M0 0 C0.33 0 0.66 0 1 0 C1 1.65 1 3.3 1 5 C1.66 5 2.32 5 3 5 C2.67 6.98 2.34 8.96 2 11 C1.67 9.68 1.34 8.36 1 7 C-0.32 6.67 -1.64 6.34 -3 6 C-2.01 4.02 -1.02 2.04 0 0 Z " fill="#F8DEDA" transform="translate(37,15)"/>
<path d="M0 0 C0.99 0 1.98 0 3 0 C3 2.64 3 5.28 3 8 C1.35 8 -0.3 8 -2 8 C-1.67 7.01 -1.34 6.02 -1 5 C-0.34 5 0.32 5 1 5 C0.67 3.35 0.34 1.7 0 0 Z " fill="#E91A15" transform="translate(65,34)"/>
<path d="M0 0 C1.36125 0.12375 1.36125 0.12375 2.75 0.25 C2.75 1.24 2.75 2.23 2.75 3.25 C-3.875 4.25 -3.875 4.25 -7.25 4.25 C-4.83923194 1.28290085 -3.90322061 0.30024774 0 0 Z " fill="#F1E9EC" transform="translate(49.25,36.75)"/>
<path d="M0 0 C2.64 0 5.28 0 8 0 C8.33 0.99 8.66 1.98 9 3 C5.7 3 2.4 3 -1 3 C-0.67 2.01 -0.34 1.02 0 0 Z " fill="#F7F7F9" transform="translate(92,13)"/>
<path d="M0 0 C1.40416706 2.62111184 2.6169847 5.03163146 3 8 C2.01 9.485 2.01 9.485 1 11 C0.67 9.35 0.34 7.7 0 6 C-0.66 6 -1.32 6 -2 6 C-1.34 4.02 -0.68 2.04 0 0 Z " fill="#EF2E36" transform="translate(28,40)"/>
<path d="M0 0 C0.99 0.33 1.98 0.66 3 1 C2.34 3.64 1.68 6.28 1 9 C0.34 9 -0.32 9 -1 9 C-1.09765625 2.84765625 -1.09765625 2.84765625 -1 1 C-0.67 0.67 -0.34 0.34 0 0 Z " fill="#F6EAEC" transform="translate(39,11)"/>
<path d="M0 0 C1.1446875 0.2784375 1.1446875 0.2784375 2.3125 0.5625 C5.08967375 1.22819173 5.08967375 1.22819173 8 0 C8 0.99 8 1.98 8 3 C4.7 3.33 1.4 3.66 -2 4 C-2 3.34 -2 2.68 -2 2 C-1.34 2 -0.68 2 0 2 C0 1.34 0 0.68 0 0 Z " fill="#F51314" transform="translate(44,50)"/>
<path d="M0 0 C0.99 0 1.98 0 3 0 C3 0.66 3 1.32 3 2 C3.66 2 4.32 2 5 2 C5 3.32 5 4.64 5 6 C3.68 5.67 2.36 5.34 1 5 C1 4.34 1 3.68 1 3 C0.34 3 -0.32 3 -1 3 C-0.67 2.01 -0.34 1.02 0 0 Z " fill="#EA1E18" transform="translate(109,42)"/>
<path d="M0 0 C0.33 0.66 0.66 1.32 1 2 C1.66 2 2.32 2 3 2 C3.125 4.875 3.125 4.875 3 8 C2.34 8.66 1.68 9.32 1 10 C0.34 9.34 -0.32 8.68 -1 8 C-0.96712417 5.27130593 -0.43602229 2.7033382 0 0 Z " fill="#E53034" transform="translate(105,14)"/>
<path d="M0 0 C-0.66 2.97 -1.32 5.94 -2 9 C-2.66 9 -3.32 9 -4 9 C-4 6.36 -4 3.72 -4 1 C-2 0 -2 0 0 0 Z " fill="#EE1C1A" transform="translate(42,39)"/>
<path d="M0 0 C1.98 0 3.96 0 6 0 C5.67 1.32 5.34 2.64 5 4 C3.35 4 1.7 4 0 4 C0 2.68 0 1.36 0 0 Z " fill="#F2EEF1" transform="translate(69,38)"/>
<path d="M0 0 C1.4540625 0.0309375 1.4540625 0.0309375 2.9375 0.0625 C1.56766497 3.22365776 0.9484362 4.0552092 -2.0625 6.0625 C-2.0625 4.7425 -2.0625 3.4225 -2.0625 2.0625 C-2.7225 1.7325 -3.3825 1.4025 -4.0625 1.0625 C-3.0625 0.0625 -3.0625 0.0625 0 0 Z " fill="#EF3538" transform="translate(100.0625,31.9375)"/>
<path d="M0 0 C0.33 0 0.66 0 1 0 C1 1.98 1 3.96 1 6 C-1.64 6 -4.28 6 -7 6 C-3.25 3 -3.25 3 -1 3 C-0.67 2.01 -0.34 1.02 0 0 Z " fill="#4A6B4F" transform="translate(128,57)"/>
<path d="M0 0 C0.33 0 0.66 0 1 0 C1 1.65 1 3.3 1 5 C1.66 5 2.32 5 3 5 C3 6.98 3 8.96 3 11 C2.01 11.495 2.01 11.495 1 12 C1 10.35 1 8.7 1 7 C0.34 7 -0.32 7 -1 7 C-0.67 4.69 -0.34 2.38 0 0 Z " fill="#E03435" transform="translate(85,11)"/>
<path d="M0 0 C0.98120464 3.05263664 0.98120464 4.94736336 0 8 C-1.98 8 -3.96 8 -6 8 C-4.73046875 6.50260417 -3.4609375 5.00520833 -2.19140625 3.5078125 C-0.9121848 1.99405921 -0.9121848 1.99405921 0 0 Z " fill="#F2EAE9" transform="translate(59,46)"/>
<path d="M0 0 C0 1.65 0 3.3 0 5 C-1.65 5 -3.3 5 -5 5 C-4.625 3.0625 -4.625 3.0625 -4 1 C-2 0 -2 0 0 0 Z " fill="#F81115" transform="translate(65,48)"/>
<path d="M0 0 C0.763125 0.61875 1.52625 1.2375 2.3125 1.875 C4.99625809 4.05597052 4.99625809 4.05597052 8 6 C5.36 6 2.72 6 0 6 C0 4.02 0 2.04 0 0 Z " fill="#4C6755" transform="translate(0,57)"/>
<path d="M0 0 C0.66 0 1.32 0 2 0 C2 1.32 2 2.64 2 4 C1.34 4 0.68 4 0 4 C0 4.66 0 5.32 0 6 C-1.32 6 -2.64 6 -4 6 C-4 5.34 -4 4.68 -4 4 C-3.34 4 -2.68 4 -2 4 C-2 3.34 -2 2.68 -2 2 C-1.34 2 -0.68 2 0 2 C0 1.34 0 0.68 0 0 Z " fill="#ECFEFE" transform="translate(100,42)"/>
<path d="M0 0 C1.98 0 3.96 0 6 0 C6 0.66 6 1.32 6 2 C6.66 2.33 7.32 2.66 8 3 C5.36 3 2.72 3 0 3 C0 2.01 0 1.02 0 0 Z " fill="#E11E1B" transform="translate(70,34)"/>
<path d="M0 0 C0.66 0 1.32 0 2 0 C2 2.31 2 4.62 2 7 C0.68 6.67 -0.64 6.34 -2 6 C-2 5.34 -2 4.68 -2 4 C-1.34 4 -0.68 4 0 4 C0 2.68 0 1.36 0 0 Z " fill="#F91923" transform="translate(114,44)"/>
<path d="M0 0 C0.99 0.33 1.98 0.66 3 1 C2.34 1 1.68 1 1 1 C1 1.66 1 2.32 1 3 C1.66 3 2.32 3 3 3 C3 3.99 3 4.98 3 6 C1.68 6 0.36 6 -1 6 C-1.042721 4.33388095 -1.04063832 2.66617115 -1 1 C-0.67 0.67 -0.34 0.34 0 0 Z " fill="#F81D1F" transform="translate(73,45)"/>
<path d="M0 0 C0.99 0.66 1.98 1.32 3 2 C2.01 3.485 2.01 3.485 1 5 C0.34 5 -0.32 5 -1 5 C-1 5.66 -1 6.32 -1 7 C-1.66 7 -2.32 7 -3 7 C-1.125 1.125 -1.125 1.125 0 0 Z " fill="#EE2C30" transform="translate(33,11)"/>
<path d="M0 0 C1.485 0.99 1.485 0.99 3 2 C2.67 3.65 2.34 5.3 2 7 C1.01 7.33 0.02 7.66 -1 8 C-0.67 5.36 -0.34 2.72 0 0 Z " fill="#E73335" transform="translate(61,42)"/>
<path d="M0 0 C0.99 0 1.98 0 3 0 C3 1.98 3 3.96 3 6 C2.01 6 1.02 6 0 6 C0 4.02 0 2.04 0 0 Z " fill="#FDEDF4" transform="translate(48,24)"/>
<path d="M0 0 C0.99 0 1.98 0 3 0 C3 1.32 3 2.64 3 4 C2.01 4 1.02 4 0 4 C-0.33 4.99 -0.66 5.98 -1 7 C-1.04254356 5.00045254 -1.04080783 2.99958364 -1 1 C-0.67 0.67 -0.34 0.34 0 0 Z " fill="#ED120E" transform="translate(44,10)"/>
<path d="M0 0 C1.32 0 2.64 0 4 0 C3.34 1.98 2.68 3.96 2 6 C1.67 5.34 1.34 4.68 1 4 C0.34 4 -0.32 4 -1 4 C-0.67 2.68 -0.34 1.36 0 0 Z " fill="#EA2C30" transform="translate(15,46)"/>
<path d="M0 0 C1.32 0 2.64 0 4 0 C3.43628586 3.26954202 2.50037734 4.82575883 0 7 C0 4.69 0 2.38 0 0 Z " fill="#DB4748" transform="translate(86,46)"/>
<path d="M0 0 C1.32 0 2.64 0 4 0 C2.92598892 2.91517292 2.22189824 4.77810176 0 7 C0 4.69 0 2.38 0 0 Z " fill="#ECF0F2" transform="translate(16,12)"/>
<path d="M0 0 C1.98 0 3.96 0 6 0 C6 1.98 6 3.96 6 6 C3.97945196 4.35830472 1.97956942 2.69088222 0 1 C0 0.67 0 0.34 0 0 Z " fill="#466B54" transform="translate(123,0)"/>
</svg>
