<svg width="33" height="33" viewBox="0 0 33 33" fill="none" xmlns="http://www.w3.org/2000/svg">
<mask id="mask0_5004_3277" style="mask-type:luminance" maskUnits="userSpaceOnUse" x="2" y="4" width="29" height="24">
<path fill-rule="evenodd" clip-rule="evenodd" d="M2.67188 4.22266H30.6719V27.2227H2.67188V4.22266Z" fill="white"/>
</mask>
<g mask="url(#mask0_5004_3277)">
<path fill-rule="evenodd" clip-rule="evenodd" d="M15.4382 26.7899C15.5644 26.928 15.7129 27.0334 15.8719 27.1069C16.2928 27.2998 16.7847 27.2471 17.1832 26.9836C17.2399 26.9465 17.3034 26.9272 17.3564 26.8812C17.6333 26.6303 17.7826 26.2919 17.7982 25.9452C17.8124 25.6706 17.7154 25.4012 17.5579 25.16C17.5183 25.0976 17.4974 25.0301 17.4474 24.9737L16.2495 23.6643L14.7329 22.0054L8.50674 15.1968C8.35075 15.0268 8.14176 14.9296 7.92532 14.9111C7.70813 14.8932 7.48422 14.9519 7.29986 15.0959C7.1073 15.2466 6.9946 15.4625 6.96699 15.6867C6.95355 15.7995 6.96176 15.9131 6.99236 16.0244C7.02296 16.135 7.07596 16.2412 7.15134 16.3369L11.4952 21.8176L11.987 22.4389L13.1991 23.9687L15.377 26.7172C15.3949 26.7417 15.4173 26.7677 15.4382 26.7899ZM16.6685 7.66134C16.6342 7.65986 16.6006 7.65243 16.5663 7.65837C16.3237 7.69771 16.1595 7.92335 16.1991 8.16532C16.2185 8.28482 16.2274 8.40878 16.2274 8.53273C16.2274 8.77619 16.4267 8.97511 16.6715 8.97511C16.9171 8.97511 17.1148 8.77619 17.1148 8.53273C17.1148 8.40878 17.126 8.28482 17.1462 8.16532C17.1858 7.92335 17.0201 7.69771 16.7775 7.65837C16.7409 7.65169 16.7051 7.65837 16.6685 7.66134ZM7.8266 4.96991C7.5176 5.12133 7.22951 5.29502 6.96753 5.48726C6.76974 5.632 6.72646 5.90737 6.87274 6.10406C6.95932 6.22282 7.09367 6.28443 7.231 6.28443C7.3228 6.28443 7.41386 6.25696 7.49223 6.19833C7.7139 6.038 7.95945 5.88955 8.22217 5.75966C8.4416 5.65129 8.53116 5.38557 8.42145 5.16809C8.31173 4.95062 8.04528 4.86006 7.8266 4.96991ZM11.1811 4.22266C11.0147 4.2234 10.8438 4.22637 10.6796 4.23676C10.4347 4.25086 10.2489 4.46166 10.2646 4.70437C10.2795 4.94709 10.4885 5.14155 10.734 5.1178C10.8684 5.10889 11.0042 5.10444 11.1453 5.10444C11.3005 5.10593 11.4558 5.10815 11.6088 5.1178C11.6185 5.11854 11.6267 5.11854 11.6356 5.11854C11.8678 5.11854 12.0655 4.93966 12.0782 4.70511C12.0947 4.4624 11.9096 4.25235 11.6633 4.23676C11.5043 4.22637 11.3423 4.22266 11.1811 4.22266ZM13.9215 5.16244C13.8126 5.3814 13.9029 5.6449 14.1223 5.75326C14.3843 5.88242 14.6306 6.03012 14.8552 6.19045C14.9321 6.2476 15.0239 6.27506 15.1157 6.27506C15.2516 6.27506 15.3867 6.21197 15.474 6.09247C15.618 5.89503 15.5747 5.6204 15.377 5.47641C15.112 5.28639 14.8217 5.11197 14.5164 4.96203C14.2985 4.85589 14.0298 4.94348 13.9215 5.16244ZM5.79184 7.65844C5.55301 7.61614 5.32164 7.7824 5.28282 8.02289C5.25521 8.19063 5.24103 8.35986 5.24103 8.53281C5.24103 8.77626 5.44031 8.97518 5.68511 8.97518C5.93067 8.97518 6.12846 8.77626 6.12846 8.53281C6.12846 8.40885 6.1389 8.2849 6.15906 8.1654C6.19936 7.92342 6.03367 7.69778 5.79184 7.65844ZM27.5528 7.6585C27.3109 7.69784 27.1467 7.92348 27.1871 8.16545C27.205 8.28495 27.2154 8.40891 27.2154 8.53286C27.2154 8.77632 27.4139 8.97524 27.658 8.97524C27.9036 8.97524 28.1028 8.77632 28.1028 8.53286C28.1028 8.35992 28.0902 8.19069 28.0618 8.02294C28.0237 7.78245 27.7909 7.61693 27.5528 7.6585ZM22.168 4.22266C21.9978 4.2234 21.8321 4.22637 21.6679 4.23676C21.4216 4.25086 21.2358 4.46166 21.2507 4.70437C21.2664 4.94709 21.4836 5.14155 21.7209 5.1178C21.8552 5.10889 21.9926 5.10444 22.1329 5.10444C22.2919 5.10593 22.4426 5.10815 22.5956 5.1178C22.6061 5.11854 22.6143 5.11854 22.6232 5.11854C22.8569 5.11854 23.0524 4.93966 23.0666 4.70511C23.0815 4.4624 22.8972 4.25235 22.6509 4.23676C22.4919 4.22637 22.3292 4.22266 22.168 4.22266ZM18.8129 4.96991C18.5046 5.12133 18.2158 5.29502 17.9538 5.48726C17.7568 5.632 17.7142 5.90737 17.8598 6.10406C17.9464 6.22282 18.0807 6.28443 18.2165 6.28443C18.3091 6.28443 18.4001 6.25696 18.4793 6.19833C18.7002 6.038 18.9457 5.88955 19.2092 5.75966C19.4286 5.65129 19.5174 5.38557 19.4092 5.16809C19.298 4.95062 19.0323 4.86006 18.8129 4.96991ZM24.9082 5.16244C24.8 5.3814 24.8911 5.6449 25.1098 5.75326C25.371 5.88242 25.618 6.03012 25.8419 6.19045C25.9196 6.2476 26.0121 6.27506 26.1032 6.27506C26.239 6.27506 26.3741 6.21197 26.4622 6.09247C26.6047 5.89503 26.5614 5.6204 26.3644 5.47641C26.0994 5.28639 25.8098 5.11197 25.5046 4.96203C25.2859 4.85589 25.0165 4.94348 24.9082 5.16244ZM17.1148 21.5199C17.1148 21.275 16.917 21.0776 16.6714 21.0776C16.4266 21.0776 16.2274 21.275 16.2274 21.5199V21.9349C16.5244 21.9282 16.82 21.9282 17.1148 21.9349V21.5199ZM16.2274 19.2873C16.2274 19.5322 16.4266 19.7296 16.6714 19.7296C16.917 19.7296 17.1148 19.5322 17.1148 19.2873V18.5435C17.1148 18.2993 16.917 18.1019 16.6714 18.1019C16.4266 18.1019 16.2274 18.2993 16.2274 18.5435V19.2873ZM16.2274 16.314C16.2274 16.5575 16.4266 16.7549 16.6714 16.7549C16.917 16.7549 17.1148 16.5575 17.1148 16.314V15.5696C17.1148 15.3246 16.917 15.1287 16.6714 15.1287C16.4266 15.1287 16.2274 15.3246 16.2274 15.5696V16.314ZM16.6714 13.7807C16.917 13.7807 17.1148 13.5825 17.1148 13.3368V12.8967C17.1148 12.6532 16.917 12.455 16.6714 12.455C16.4266 12.455 16.2274 12.6532 16.2274 12.8967V13.3368C16.2274 13.5825 16.4266 13.7807 16.6714 13.7807ZM29.9113 12.7153L30.6718 13.0567L25.7966 25.8359L24.9352 25.4492C22.5208 24.3648 19.9951 23.7754 17.4589 23.6737L15.8833 21.951C15.9983 21.9458 16.1125 21.9369 16.2274 21.9347C16.5245 21.928 16.82 21.928 17.1148 21.9347C19.7271 21.9859 22.3304 22.4884 24.7979 23.4726L28.4155 13.9919C20.8101 10.8084 12.5329 10.8084 4.92746 13.9919L8.54658 23.4726C9.36236 23.1467 10.1968 22.8907 11.0379 22.6673L12.2254 24.1666C10.9342 24.465 9.65717 24.8888 8.41 25.4492L7.54944 25.8359L2.6712 13.0567L3.4325 12.7153C11.8455 8.93131 21.4975 8.93131 29.9113 12.7153Z" fill="black"/>
</g>
</svg>
